NotoSansThaana-SemiBold.ufo
<glyph name="exclam" format="2">
  <advance width="422"/>
  <unicode hex="0021"/>
  <outline>
    <contour>
      <point x="192" y="211" type="curve" smooth="yes"/>
      <point x="239" y="211"/>
      <point x="249" y="242"/>
      <point x="260" y="291" type="curve" smooth="yes"/>
      <point x="275" y="357"/>
      <point x="297" y="421"/>
      <point x="319" y="492" type="curve" smooth="yes"/>
      <point x="343" y="570"/>
      <point x="363" y="620"/>
      <point x="375" y="654" type="curve" smooth="yes"/>
      <point x="386" y="685"/>
      <point x="391" y="702"/>
      <point x="391" y="720" type="curve" smooth="yes"/>
      <point x="391" y="737"/>
      <point x="379" y="751"/>
      <point x="356" y="751" type="curve" smooth="yes"/>
      <point x="333" y="751"/>
      <point x="313" y="733"/>
      <point x="290" y="691" type="curve" smooth="yes"/>
      <point x="264" y="644"/>
      <point x="234" y="566"/>
      <point x="191" y="449" type="curve" smooth="yes"/>
      <point x="153" y="347"/>
      <point x="132" y="278"/>
      <point x="132" y="252" type="curve" smooth="yes"/>
      <point x="132" y="228"/>
      <point x="145" y="211"/>
    </contour>
    <contour>
      <point x="152" y="-10" type="curve" smooth="yes"/>
      <point x="203" y="-10"/>
      <point x="252" y="38"/>
      <point x="252" y="88" type="curve" smooth="yes"/>
      <point x="252" y="130"/>
      <point x="221" y="160"/>
      <point x="180" y="160" type="curve" smooth="yes"/>
      <point x="128" y="160"/>
      <point x="80" y="112"/>
      <point x="80" y="61" type="curve" smooth="yes"/>
      <point x="80" y="19"/>
      <point x="108" y="-10"/>
    </contour>
  </outline>
</glyph>
<glyph name="parenleft" format="2">
  <advance width="513"/>
  <unicode hex="0028"/>
  <outline>
    <contour>
      <point x="257" y="-228" type="curve" smooth="yes"/>
      <point x="290" y="-228"/>
      <point x="316" y="-202"/>
      <point x="316" y="-175" type="curve" smooth="yes"/>
      <point x="316" y="-156"/>
      <point x="304" y="-135"/>
      <point x="280" y="-111" type="curve" smooth="yes"/>
      <point x="240" y="-71"/>
      <point x="204" y="12"/>
      <point x="204" y="100" type="curve" smooth="yes"/>
      <point x="204" y="321"/>
      <point x="301" y="536"/>
      <point x="487" y="613" type="curve" smooth="yes"/>
      <point x="521" y="627"/>
      <point x="561" y="644"/>
      <point x="561" y="676" type="curve" smooth="yes"/>
      <point x="561" y="698"/>
      <point x="544" y="715"/>
      <point x="518" y="715" type="curve" smooth="yes"/>
      <point x="463" y="715"/>
      <point x="399" y="685"/>
      <point x="322" y="625" type="curve" smooth="yes"/>
      <point x="170" y="508"/>
      <point x="85" y="313"/>
      <point x="85" y="100" type="curve" smooth="yes"/>
      <point x="85" y="-4"/>
      <point x="120" y="-116"/>
      <point x="188" y="-187" type="curve" smooth="yes"/>
      <point x="212" y="-213"/>
      <point x="237" y="-228"/>
    </contour>
  </outline>
</glyph>
<glyph name="parenright" format="2">
  <advance width="513"/>
  <unicode hex="0029"/>
  <outline>
    <contour>
      <point x="-18" y="-228" type="curve" smooth="yes"/>
      <point x="14" y="-228"/>
      <point x="45" y="-222"/>
      <point x="75" y="-210" type="curve" smooth="yes"/>
      <point x="265" y="-134"/>
      <point x="415" y="157"/>
      <point x="415" y="387" type="curve" smooth="yes"/>
      <point x="415" y="490"/>
      <point x="383" y="592"/>
      <point x="318" y="669" type="curve" smooth="yes"/>
      <point x="293" y="699"/>
      <point x="265" y="715"/>
      <point x="243" y="715" type="curve" smooth="yes"/>
      <point x="210" y="715"/>
      <point x="184" y="689"/>
      <point x="184" y="662" type="curve" smooth="yes"/>
      <point x="184" y="643"/>
      <point x="196" y="622"/>
      <point x="220" y="598" type="curve" smooth="yes"/>
      <point x="260" y="558"/>
      <point x="296" y="475"/>
      <point x="296" y="387" type="curve" smooth="yes"/>
      <point x="296" y="166"/>
      <point x="194" y="-53"/>
      <point x="13" y="-126" type="curve" smooth="yes"/>
      <point x="-25" y="-141"/>
      <point x="-61" y="-157"/>
      <point x="-61" y="-189" type="curve" smooth="yes"/>
      <point x="-61" y="-211"/>
      <point x="-44" y="-228"/>
    </contour>
  </outline>
</glyph>
<glyph name="comma" format="2">
  <advance width="382"/>
  <unicode hex="002C"/>
  <outline>
    <contour>
      <point x="104" y="-130" type="curve" smooth="yes"/>
      <point x="120" y="-130"/>
      <point x="140" y="-117"/>
      <point x="165" y="-92" type="curve" smooth="yes"/>
      <point x="200" y="-57"/>
      <point x="259" y="22"/>
      <point x="259" y="77" type="curve" smooth="yes"/>
      <point x="259" y="125"/>
      <point x="229" y="149"/>
      <point x="184" y="149" type="curve" smooth="yes"/>
      <point x="136" y="149"/>
      <point x="87" y="115"/>
      <point x="87" y="63" type="curve" smooth="yes"/>
      <point x="87" y="31"/>
      <point x="107" y="4"/>
      <point x="139" y="-4" type="curve"/>
      <point x="131" y="-18"/>
      <point x="122" y="-29"/>
      <point x="79" y="-73" type="curve" smooth="yes"/>
      <point x="72" y="-81"/>
      <point x="69" y="-89"/>
      <point x="69" y="-99" type="curve" smooth="yes"/>
      <point x="69" y="-114"/>
      <point x="82" y="-130"/>
    </contour>
  </outline>
</glyph>
<glyph name="period" format="2">
  <advance width="382"/>
  <unicode hex="002E"/>
  <outline>
    <contour>
      <point x="145" y="-10" type="curve" smooth="yes"/>
      <point x="197" y="-10"/>
      <point x="247" y="31"/>
      <point x="247" y="82" type="curve" smooth="yes"/>
      <point x="247" y="123"/>
      <point x="214" y="149"/>
      <point x="173" y="149" type="curve" smooth="yes"/>
      <point x="123" y="149"/>
      <point x="74" y="109"/>
      <point x="74" y="58" type="curve" smooth="yes"/>
      <point x="74" y="17"/>
      <point x="102" y="-10"/>
    </contour>
  </outline>
</glyph>
<glyph name="colon" format="2">
  <advance width="382"/>
  <unicode hex="003A"/>
  <outline>
    <contour>
      <point x="176" y="247" type="curve" smooth="yes"/>
      <point x="229" y="247"/>
      <point x="278" y="288"/>
      <point x="278" y="338" type="curve" smooth="yes"/>
      <point x="278" y="379"/>
      <point x="245" y="405"/>
      <point x="204" y="405" type="curve" smooth="yes"/>
      <point x="154" y="405"/>
      <point x="105" y="366"/>
      <point x="105" y="314" type="curve" smooth="yes"/>
      <point x="105" y="273"/>
      <point x="133" y="247"/>
    </contour>
    <contour>
      <point x="145" y="-10" type="curve" smooth="yes"/>
      <point x="197" y="-10"/>
      <point x="247" y="31"/>
      <point x="247" y="82" type="curve" smooth="yes"/>
      <point x="247" y="123"/>
      <point x="214" y="149"/>
      <point x="173" y="149" type="curve" smooth="yes"/>
      <point x="123" y="149"/>
      <point x="74" y="109"/>
      <point x="74" y="58" type="curve" smooth="yes"/>
      <point x="74" y="17"/>
      <point x="102" y="-10"/>
    </contour>
  </outline>
</glyph>
<glyph name="semicolon" format="2">
  <advance width="382"/>
  <unicode hex="003B"/>
  <outline>
    <contour>
      <point x="104" y="-130" type="curve" smooth="yes"/>
      <point x="120" y="-130"/>
      <point x="140" y="-117"/>
      <point x="165" y="-92" type="curve" smooth="yes"/>
      <point x="200" y="-57"/>
      <point x="259" y="22"/>
      <point x="259" y="77" type="curve" smooth="yes"/>
      <point x="259" y="125"/>
      <point x="229" y="149"/>
      <point x="184" y="149" type="curve" smooth="yes"/>
      <point x="136" y="149"/>
      <point x="87" y="115"/>
      <point x="87" y="63" type="curve" smooth="yes"/>
      <point x="87" y="31"/>
      <point x="107" y="4"/>
      <point x="139" y="-4" type="curve"/>
      <point x="131" y="-18"/>
      <point x="122" y="-29"/>
      <point x="79" y="-73" type="curve" smooth="yes"/>
      <point x="72" y="-81"/>
      <point x="69" y="-89"/>
      <point x="69" y="-99" type="curve" smooth="yes"/>
      <point x="69" y="-114"/>
      <point x="82" y="-130"/>
    </contour>
    <contour>
      <point x="186" y="247" type="curve" smooth="yes"/>
      <point x="238" y="247"/>
      <point x="288" y="288"/>
      <point x="288" y="338" type="curve" smooth="yes"/>
      <point x="288" y="379"/>
      <point x="255" y="405"/>
      <point x="214" y="405" type="curve" smooth="yes"/>
      <point x="164" y="405"/>
      <point x="115" y="366"/>
      <point x="115" y="314" type="curve" smooth="yes"/>
      <point x="115" y="273"/>
      <point x="143" y="247"/>
    </contour>
  </outline>
</glyph>
<glyph name="uni060C" format="2">
  <advance width="386"/>
  <unicode hex="060C"/>
  <outline>
    <contour>
      <point x="166" y="-8" type="curve" smooth="yes"/>
      <point x="214" y="-8"/>
      <point x="263" y="26"/>
      <point x="263" y="78" type="curve" smooth="yes"/>
      <point x="263" y="110"/>
      <point x="243" y="138"/>
      <point x="211" y="146" type="curve"/>
      <point x="219" y="160"/>
      <point x="230" y="169"/>
      <point x="271" y="215" type="curve" smooth="yes"/>
      <point x="278" y="223"/>
      <point x="281" y="231"/>
      <point x="281" y="241" type="curve" smooth="yes"/>
      <point x="281" y="256"/>
      <point x="268" y="272"/>
      <point x="246" y="272" type="curve" smooth="yes"/>
      <point x="230" y="272"/>
      <point x="209" y="259"/>
      <point x="185" y="233" type="curve" smooth="yes"/>
      <point x="151" y="197"/>
      <point x="91" y="119"/>
      <point x="91" y="64" type="curve" smooth="yes"/>
      <point x="91" y="16"/>
      <point x="121" y="-8"/>
    </contour>
  </outline>
</glyph>
<glyph name="uni061B" format="2">
  <advance width="382"/>
  <unicode hex="061B"/>
  <outline>
    <contour>
      <point x="202" y="279" type="curve" smooth="yes"/>
      <point x="250" y="279"/>
      <point x="299" y="313"/>
      <point x="299" y="365" type="curve" smooth="yes"/>
      <point x="299" y="397"/>
      <point x="279" y="425"/>
      <point x="247" y="433" type="curve"/>
      <point x="255" y="447"/>
      <point x="266" y="456"/>
      <point x="307" y="502" type="curve" smooth="yes"/>
      <point x="314" y="510"/>
      <point x="317" y="518"/>
      <point x="317" y="528" type="curve" smooth="yes"/>
      <point x="317" y="543"/>
      <point x="304" y="559"/>
      <point x="282" y="559" type="curve" smooth="yes"/>
      <point x="266" y="559"/>
      <point x="245" y="546"/>
      <point x="221" y="520" type="curve" smooth="yes"/>
      <point x="187" y="484"/>
      <point x="127" y="406"/>
      <point x="127" y="351" type="curve" smooth="yes"/>
      <point x="127" y="303"/>
      <point x="157" y="279"/>
    </contour>
    <contour>
      <point x="145" y="-10" type="curve" smooth="yes"/>
      <point x="197" y="-10"/>
      <point x="247" y="31"/>
      <point x="247" y="82" type="curve" smooth="yes"/>
      <point x="247" y="123"/>
      <point x="214" y="149"/>
      <point x="173" y="149" type="curve" smooth="yes"/>
      <point x="123" y="149"/>
      <point x="74" y="109"/>
      <point x="74" y="58" type="curve" smooth="yes"/>
      <point x="74" y="17"/>
      <point x="102" y="-10"/>
    </contour>
  </outline>
</glyph>
<glyph name="uni061F" format="2">
  <advance width="479"/>
  <unicode hex="061F"/>
  <outline>
    <contour>
      <point x="219" y="211" type="curve" smooth="yes"/>
      <point x="236" y="211"/>
      <point x="255" y="219"/>
      <point x="269" y="236" type="curve" smooth="yes"/>
      <point x="294" y="266"/>
      <point x="306" y="297"/>
      <point x="306" y="334" type="curve" smooth="yes"/>
      <point x="306" y="371"/>
      <point x="291" y="399"/>
      <point x="268" y="434" type="curve" smooth="yes"/>
      <point x="250" y="462"/>
      <point x="240" y="484"/>
      <point x="240" y="519" type="curve" smooth="yes"/>
      <point x="240" y="572"/>
      <point x="285" y="612"/>
      <point x="335" y="612" type="curve" smooth="yes"/>
      <point x="362" y="612"/>
      <point x="385" y="599"/>
      <point x="405" y="586" type="curve" smooth="yes"/>
      <point x="426" y="572"/>
      <point x="444" y="559"/>
      <point x="461" y="559" type="curve" smooth="yes"/>
      <point x="479" y="559"/>
      <point x="512" y="597"/>
      <point x="512" y="635" type="curve" smooth="yes"/>
      <point x="512" y="644"/>
      <point x="510" y="656"/>
      <point x="495" y="669" type="curve" smooth="yes"/>
      <point x="457" y="702"/>
      <point x="411" y="714"/>
      <point x="349" y="714" type="curve" smooth="yes"/>
      <point x="217" y="714"/>
      <point x="122" y="618"/>
      <point x="122" y="522" type="curve" smooth="yes"/>
      <point x="122" y="466"/>
      <point x="138" y="442"/>
      <point x="158" y="405" type="curve" smooth="yes"/>
      <point x="171" y="381"/>
      <point x="192" y="356"/>
      <point x="192" y="325" type="curve" smooth="yes"/>
      <point x="192" y="301"/>
      <point x="188" y="284"/>
      <point x="182" y="266" type="curve" smooth="yes"/>
      <point x="179" y="256"/>
      <point x="174" y="243"/>
      <point x="174" y="230" type="curve" smooth="yes"/>
      <point x="174" y="212"/>
      <point x="203" y="211"/>
    </contour>
    <contour>
      <point x="153" y="-18" type="curve" smooth="yes"/>
      <point x="211" y="-18"/>
      <point x="266" y="27"/>
      <point x="266" y="83" type="curve" smooth="yes"/>
      <point x="266" y="128"/>
      <point x="229" y="157"/>
      <point x="184" y="157" type="curve" smooth="yes"/>
      <point x="129" y="157"/>
      <point x="75" y="113"/>
      <point x="75" y="57" type="curve" smooth="yes"/>
      <point x="75" y="12"/>
      <point x="106" y="-18"/>
    </contour>
  </outline>
</glyph>
<glyph name="uni0660" format="2">
  <advance width="293"/>
  <unicode hex="0660"/>
  <outline>
    <contour>
      <point x="78" y="395" type="curve" smooth="yes"/>
      <point x="78" y="352"/>
      <point x="115" y="286"/>
      <point x="144" y="286" type="curve" smooth="yes"/>
      <point x="169" y="286"/>
      <point x="216" y="303"/>
      <point x="216" y="331" type="curve" smooth="yes"/>
      <point x="216" y="384"/>
      <point x="186" y="450"/>
      <point x="151" y="450" type="curve" smooth="yes"/>
      <point x="120" y="450"/>
      <point x="78" y="430"/>
    </contour>
  </outline>
</glyph>
<glyph name="uni0661" format="2">
  <advance width="361"/>
  <unicode hex="0661"/>
  <outline>
    <contour>
      <point x="177" y="128" type="curve" smooth="yes"/>
      <point x="204" y="128"/>
      <point x="223" y="141"/>
      <point x="234" y="163" type="curve" smooth="yes"/>
      <point x="248" y="190"/>
      <point x="255" y="245"/>
      <point x="255" y="294" type="curve" smooth="yes"/>
      <point x="255" y="380"/>
      <point x="248" y="456"/>
      <point x="231" y="538" type="curve" smooth="yes"/>
      <point x="217" y="606"/>
      <point x="198" y="661"/>
      <point x="174" y="697" type="curve" smooth="yes"/>
      <point x="160" y="718"/>
      <point x="142" y="721"/>
      <point x="123" y="721" type="curve" smooth="yes"/>
      <point x="91" y="721"/>
      <point x="52" y="696"/>
      <point x="52" y="661" type="curve" smooth="yes"/>
      <point x="52" y="644"/>
      <point x="57" y="628"/>
      <point x="67" y="610" type="curve" smooth="yes"/>
      <point x="93" y="563"/>
      <point x="109" y="508"/>
      <point x="122" y="450" type="curve" smooth="yes"/>
      <point x="134" y="397"/>
      <point x="145" y="331"/>
      <point x="145" y="283" type="curve" smooth="yes"/>
      <point x="145" y="255"/>
      <point x="144" y="225"/>
      <point x="142" y="207" type="curve" smooth="yes"/>
      <point x="140" y="192"/>
      <point x="138" y="177"/>
      <point x="138" y="163" type="curve" smooth="yes"/>
      <point x="138" y="142"/>
      <point x="153" y="128"/>
    </contour>
  </outline>
</glyph>
<glyph name="uni0662" format="2">
  <advance width="482"/>
  <unicode hex="0662"/>
  <outline>
    <contour>
      <point x="431" y="706" type="curve" smooth="yes"/>
      <point x="415" y="706"/>
      <point x="401" y="699"/>
      <point x="387" y="681" type="curve" smooth="yes"/>
      <point x="357" y="642"/>
      <point x="329" y="620"/>
      <point x="282" y="620" type="curve" smooth="yes"/>
      <point x="247" y="620"/>
      <point x="204" y="632"/>
      <point x="177" y="657" type="curve"/>
      <point x="168" y="673"/>
      <point x="160" y="687"/>
      <point x="151" y="698" type="curve" smooth="yes"/>
      <point x="138" y="715"/>
      <point x="120" y="721"/>
      <point x="105" y="721" type="curve" smooth="yes"/>
      <point x="70" y="721"/>
      <point x="35" y="696"/>
      <point x="35" y="665" type="curve" smooth="yes"/>
      <point x="35" y="644"/>
      <point x="39" y="629"/>
      <point x="50" y="612" type="curve" smooth="yes"/>
      <point x="115" y="513"/>
      <point x="146" y="408"/>
      <point x="148" y="283" type="curve" smooth="yes"/>
      <point x="148" y="254"/>
      <point x="147" y="225"/>
      <point x="145" y="207" type="curve" smooth="yes"/>
      <point x="143" y="192"/>
      <point x="142" y="177"/>
      <point x="142" y="163" type="curve" smooth="yes"/>
      <point x="142" y="142"/>
      <point x="161" y="128"/>
      <point x="185" y="128" type="curve" smooth="yes"/>
      <point x="210" y="128"/>
      <point x="225" y="141"/>
      <point x="237" y="163" type="curve" smooth="yes"/>
      <point x="251" y="189"/>
      <point x="258" y="245"/>
      <point x="258" y="293" type="curve" smooth="yes"/>
      <point x="258" y="373"/>
      <point x="241" y="475"/>
      <point x="215" y="560" type="curve"/>
      <point x="247" y="535"/>
      <point x="282" y="524"/>
      <point x="320" y="524" type="curve" smooth="yes"/>
      <point x="371" y="524"/>
      <point x="416" y="547"/>
      <point x="450" y="592" type="curve" smooth="yes"/>
      <point x="463" y="609"/>
      <point x="472" y="623"/>
      <point x="472" y="654" type="curve" smooth="yes"/>
      <point x="472" y="686"/>
      <point x="454" y="706"/>
    </contour>
  </outline>
</glyph>
<glyph name="uni0663" format="2">
  <advance width="546"/>
  <unicode hex="0663"/>
  <outline>
    <contour>
      <point x="208" y="128" type="curve" smooth="yes"/>
      <point x="233" y="128"/>
      <point x="248" y="141"/>
      <point x="260" y="163" type="curve" smooth="yes"/>
      <point x="274" y="189"/>
      <point x="281" y="245"/>
      <point x="281" y="295" type="curve" smooth="yes"/>
      <point x="281" y="361"/>
      <point x="268" y="438"/>
      <point x="247" y="509" type="curve"/>
      <point x="249" y="509"/>
      <point x="251" y="509"/>
      <point x="253" y="509" type="curve" smooth="yes"/>
      <point x="281" y="513"/>
      <point x="305" y="526"/>
      <point x="327" y="547" type="curve"/>
      <point x="349" y="533"/>
      <point x="373" y="528"/>
      <point x="405" y="528" type="curve" smooth="yes"/>
      <point x="459" y="528"/>
      <point x="497" y="569"/>
      <point x="520" y="623" type="curve" smooth="yes"/>
      <point x="529" y="643"/>
      <point x="536" y="665"/>
      <point x="536" y="677" type="curve" smooth="yes"/>
      <point x="536" y="709"/>
      <point x="507" y="728"/>
      <point x="485" y="728" type="curve" smooth="yes"/>
      <point x="465" y="728"/>
      <point x="451" y="715"/>
      <point x="441" y="681" type="curve" smooth="yes"/>
      <point x="428" y="637"/>
      <point x="405" y="602"/>
      <point x="375" y="602" type="curve" smooth="yes"/>
      <point x="372" y="602"/>
      <point x="369" y="602"/>
      <point x="365" y="603" type="curve"/>
      <point x="367" y="606"/>
      <point x="368" y="608"/>
      <point x="369" y="610" type="curve" smooth="yes"/>
      <point x="382" y="636"/>
      <point x="386" y="652"/>
      <point x="386" y="675" type="curve" smooth="yes"/>
      <point x="386" y="700"/>
      <point x="358" y="719"/>
      <point x="332" y="719" type="curve" smooth="yes"/>
      <point x="313" y="719"/>
      <point x="296" y="710"/>
      <point x="287" y="687" type="curve" smooth="yes"/>
      <point x="268" y="638"/>
      <point x="245" y="596"/>
      <point x="224" y="596" type="curve" smooth="yes"/>
      <point x="221" y="596"/>
      <point x="218" y="596"/>
      <point x="215" y="597" type="curve"/>
      <point x="198" y="637"/>
      <point x="177" y="673"/>
      <point x="157" y="698" type="curve" smooth="yes"/>
      <point x="141" y="718"/>
      <point x="125" y="723"/>
      <point x="104" y="723" type="curve" smooth="yes"/>
      <point x="74" y="723"/>
      <point x="35" y="696"/>
      <point x="35" y="665" type="curve" smooth="yes"/>
      <point x="35" y="644"/>
      <point x="40" y="629"/>
      <point x="57" y="608" type="curve" smooth="yes"/>
      <point x="132" y="514"/>
      <point x="171" y="398"/>
      <point x="171" y="283" type="curve" smooth="yes"/>
      <point x="171" y="254"/>
      <point x="170" y="225"/>
      <point x="168" y="207" type="curve" smooth="yes"/>
      <point x="166" y="192"/>
      <point x="165" y="177"/>
      <point x="165" y="163" type="curve" smooth="yes"/>
      <point x="165" y="142"/>
      <point x="184" y="128"/>
    </contour>
  </outline>
</glyph>
<glyph name="uni0664" format="2">
  <advance width="423"/>
  <unicode hex="0664"/>
  <outline>
    <contour>
      <point x="310" y="129" type="curve" smooth="yes"/>
      <point x="369" y="129"/>
      <point x="403" y="149"/>
      <point x="403" y="192" type="curve" smooth="yes"/>
      <point x="403" y="227"/>
      <point x="388" y="243"/>
      <point x="365" y="243" type="curve" smooth="yes"/>
      <point x="338" y="243"/>
      <point x="324" y="240"/>
      <point x="295" y="240" type="curve" smooth="yes"/>
      <point x="233" y="240"/>
      <point x="185" y="264"/>
      <point x="185" y="298" type="curve" smooth="yes"/>
      <point x="185" y="326"/>
      <point x="209" y="364"/>
      <point x="254" y="400" type="curve" smooth="yes"/>
      <point x="281" y="422"/>
      <point x="309" y="437"/>
      <point x="309" y="458" type="curve" smooth="yes"/>
      <point x="309" y="478"/>
      <point x="302" y="489"/>
      <point x="273" y="500" type="curve" smooth="yes"/>
      <point x="235" y="514"/>
      <point x="192" y="533"/>
      <point x="170" y="550" type="curve"/>
      <point x="201" y="574"/>
      <point x="254" y="602"/>
      <point x="305" y="626" type="curve" smooth="yes"/>
      <point x="329" y="637"/>
      <point x="339" y="652"/>
      <point x="339" y="669" type="curve" smooth="yes"/>
      <point x="339" y="690"/>
      <point x="318" y="725"/>
      <point x="289" y="725" type="curve" smooth="yes"/>
      <point x="272" y="725"/>
      <point x="245" y="716"/>
      <point x="213" y="696" type="curve" smooth="yes"/>
      <point x="172" y="670"/>
      <point x="126" y="636"/>
      <point x="81" y="599" type="curve" smooth="yes"/>
      <point x="62" y="583"/>
      <point x="51" y="569"/>
      <point x="51" y="548" type="curve" smooth="yes"/>
      <point x="51" y="532"/>
      <point x="64" y="515"/>
      <point x="79" y="505" type="curve" smooth="yes"/>
      <point x="113" y="482"/>
      <point x="167" y="460"/>
      <point x="185" y="453" type="curve"/>
      <point x="116" y="407"/>
      <point x="60" y="350"/>
      <point x="60" y="277" type="curve" smooth="yes"/>
      <point x="60" y="185"/>
      <point x="186" y="129"/>
    </contour>
  </outline>
</glyph>
<glyph name="uni0665" format="2">
  <advance width="484"/>
  <unicode hex="0665"/>
  <outline>
    <contour>
      <point x="236" y="150" type="curve" smooth="yes"/>
      <point x="389" y="150"/>
      <point x="454" y="234"/>
      <point x="454" y="339" type="curve" smooth="yes"/>
      <point x="454" y="496"/>
      <point x="354" y="680"/>
      <point x="242" y="680" type="curve" smooth="yes"/>
      <point x="146" y="680"/>
      <point x="30" y="485"/>
      <point x="30" y="332" type="curve" smooth="yes"/>
      <point x="30" y="207"/>
      <point x="109" y="150"/>
    </contour>
    <contour>
      <point x="237" y="260" type="curve" smooth="yes"/>
      <point x="169" y="260"/>
      <point x="128" y="289"/>
      <point x="128" y="342" type="curve" smooth="yes"/>
      <point x="128" y="437"/>
      <point x="191" y="567"/>
      <point x="238" y="567" type="curve" smooth="yes"/>
      <point x="304" y="567"/>
      <point x="354" y="438"/>
      <point x="354" y="345" type="curve" smooth="yes"/>
      <point x="354" y="295"/>
      <point x="316" y="260"/>
    </contour>
  </outline>
</glyph>
<glyph name="uni0666" format="2">
  <advance width="497"/>
  <unicode hex="0666"/>
  <outline>
    <contour>
      <point x="402" y="128" type="curve" smooth="yes"/>
      <point x="437" y="128"/>
      <point x="472" y="153"/>
      <point x="472" y="185" type="curve" smooth="yes"/>
      <point x="472" y="203"/>
      <point x="468" y="221"/>
      <point x="456" y="241" type="curve" smooth="yes"/>
      <point x="436" y="274"/>
      <point x="422" y="306"/>
      <point x="408" y="345" type="curve" smooth="yes"/>
      <point x="383" y="413"/>
      <point x="368" y="506"/>
      <point x="368" y="569" type="curve" smooth="yes"/>
      <point x="368" y="599"/>
      <point x="369" y="624"/>
      <point x="371" y="642" type="curve" smooth="yes"/>
      <point x="373" y="657"/>
      <point x="374" y="672"/>
      <point x="374" y="687" type="curve" smooth="yes"/>
      <point x="374" y="707"/>
      <point x="355" y="721"/>
      <point x="331" y="721" type="curve" smooth="yes"/>
      <point x="301" y="721"/>
      <point x="289" y="705"/>
      <point x="279" y="684" type="curve"/>
      <point x="251" y="669"/>
      <point x="227" y="665"/>
      <point x="197" y="665" type="curve" smooth="yes"/>
      <point x="162" y="665"/>
      <point x="139" y="670"/>
      <point x="109" y="687" type="curve" smooth="yes"/>
      <point x="86" y="700"/>
      <point x="74" y="709"/>
      <point x="56" y="709" type="curve" smooth="yes"/>
      <point x="31" y="709"/>
      <point x="10" y="684"/>
      <point x="10" y="658" type="curve" smooth="yes"/>
      <point x="10" y="635"/>
      <point x="17" y="613"/>
      <point x="41" y="595" type="curve" smooth="yes"/>
      <point x="69" y="574"/>
      <point x="117" y="562"/>
      <point x="165" y="562" type="curve" smooth="yes"/>
      <point x="197" y="562"/>
      <point x="225" y="564"/>
      <point x="257" y="575" type="curve"/>
      <point x="257" y="571"/>
      <point x="257" y="561"/>
      <point x="257" y="558" type="curve" smooth="yes"/>
      <point x="257" y="484"/>
      <point x="270" y="383"/>
      <point x="294" y="295" type="curve" smooth="yes"/>
      <point x="310" y="237"/>
      <point x="330" y="185"/>
      <point x="354" y="152" type="curve" smooth="yes"/>
      <point x="367" y="134"/>
      <point x="386" y="128"/>
    </contour>
  </outline>
</glyph>
<glyph name="uni0667" format="2">
  <advance width="496"/>
  <unicode hex="0667"/>
  <outline>
    <contour>
      <point x="320" y="209" type="curve" smooth="yes"/>
      <point x="358" y="348"/>
      <point x="422" y="514"/>
      <point x="467" y="606" type="curve" smooth="yes"/>
      <point x="473" y="619"/>
      <point x="482" y="635"/>
      <point x="482" y="647" type="curve" smooth="yes"/>
      <point x="482" y="666"/>
      <point x="455" y="692"/>
      <point x="406" y="692" type="curve" smooth="yes"/>
      <point x="383" y="692"/>
      <point x="369" y="675"/>
      <point x="359" y="655" type="curve" smooth="yes"/>
      <point x="320" y="574"/>
      <point x="280" y="447"/>
      <point x="252" y="298" type="curve"/>
      <point x="209" y="493"/>
      <point x="160" y="641"/>
      <point x="133" y="670" type="curve" smooth="yes"/>
      <point x="121" y="682"/>
      <point x="111" y="688"/>
      <point x="84" y="688" type="curve" smooth="yes"/>
      <point x="48" y="688"/>
      <point x="14" y="667"/>
      <point x="14" y="646" type="curve" smooth="yes"/>
      <point x="14" y="635"/>
      <point x="18" y="627"/>
      <point x="27" y="612" type="curve" smooth="yes"/>
      <point x="55" y="565"/>
      <point x="123" y="402"/>
      <point x="182" y="198" type="curve" smooth="yes"/>
      <point x="194" y="156"/>
      <point x="215" y="143"/>
      <point x="244" y="143" type="curve" smooth="yes"/>
      <point x="282" y="143"/>
      <point x="304" y="152"/>
    </contour>
  </outline>
</glyph>
<glyph name="uni0668" format="2">
  <advance width="496"/>
  <unicode hex="0668"/>
  <outline>
    <contour>
      <point x="90" y="143" type="curve" smooth="yes"/>
      <point x="113" y="143"/>
      <point x="128" y="160"/>
      <point x="137" y="180" type="curve" smooth="yes"/>
      <point x="175" y="262"/>
      <point x="215" y="388"/>
      <point x="244" y="538" type="curve"/>
      <point x="287" y="342"/>
      <point x="337" y="194"/>
      <point x="362" y="166" type="curve" smooth="yes"/>
      <point x="374" y="152"/>
      <point x="385" y="147"/>
      <point x="412" y="147" type="curve" smooth="yes"/>
      <point x="448" y="147"/>
      <point x="482" y="168"/>
      <point x="482" y="189" type="curve" smooth="yes"/>
      <point x="482" y="199"/>
      <point x="478" y="208"/>
      <point x="469" y="223" type="curve" smooth="yes"/>
      <point x="441" y="269"/>
      <point x="373" y="432"/>
      <point x="314" y="637" type="curve" smooth="yes"/>
      <point x="302" y="679"/>
      <point x="282" y="692"/>
      <point x="252" y="692" type="curve" smooth="yes"/>
      <point x="214" y="692"/>
      <point x="191" y="682"/>
      <point x="176" y="628" type="curve" smooth="yes"/>
      <point x="137" y="487"/>
      <point x="78" y="315"/>
      <point x="28" y="229" type="curve" smooth="yes"/>
      <point x="21" y="217"/>
      <point x="14" y="201"/>
      <point x="14" y="188" type="curve" smooth="yes"/>
      <point x="14" y="169"/>
      <point x="41" y="143"/>
    </contour>
  </outline>
</glyph>
<glyph name="uni0669" format="2">
  <advance width="490"/>
  <unicode hex="0669"/>
  <outline>
    <contour>
      <point x="414" y="123" type="curve" smooth="yes"/>
      <point x="451" y="123"/>
      <point x="480" y="141"/>
      <point x="480" y="177" type="curve" smooth="yes"/>
      <point x="480" y="186"/>
      <point x="476" y="195"/>
      <point x="470" y="204" type="curve" smooth="yes"/>
      <point x="456" y="226"/>
      <point x="453" y="232"/>
      <point x="436" y="268" type="curve" smooth="yes"/>
      <point x="410" y="323"/>
      <point x="397" y="375"/>
      <point x="383" y="492" type="curve" smooth="yes"/>
      <point x="362" y="666"/>
      <point x="255" y="711"/>
      <point x="178" y="711" type="curve" smooth="yes"/>
      <point x="97" y="711"/>
      <point x="20" y="651"/>
      <point x="20" y="553" type="curve" smooth="yes"/>
      <point x="20" y="446"/>
      <point x="96" y="384"/>
      <point x="185" y="384" type="curve" smooth="yes"/>
      <point x="230" y="384"/>
      <point x="260" y="397"/>
      <point x="285" y="412" type="curve"/>
      <point x="291" y="355"/>
      <point x="299" y="292"/>
      <point x="311" y="249" type="curve" smooth="yes"/>
      <point x="323" y="207"/>
      <point x="343" y="164"/>
      <point x="360" y="147" type="curve" smooth="yes"/>
      <point x="375" y="132"/>
      <point x="392" y="123"/>
    </contour>
    <contour>
      <point x="203" y="479" type="curve" smooth="yes"/>
      <point x="148" y="479"/>
      <point x="117" y="508"/>
      <point x="117" y="553" type="curve" smooth="yes"/>
      <point x="117" y="589"/>
      <point x="138" y="620"/>
      <point x="175" y="620" type="curve" smooth="yes"/>
      <point x="204" y="620"/>
      <point x="263" y="604"/>
      <point x="272" y="497" type="curve"/>
      <point x="259" y="488"/>
      <point x="227" y="479"/>
    </contour>
  </outline>
</glyph>
<glyph name="uni066A" format="2">
  <advance width="565"/>
  <unicode hex="066A"/>
  <outline>
    <contour>
      <point x="193" y="152" type="curve" smooth="yes"/>
      <point x="207" y="152"/>
      <point x="220" y="160"/>
      <point x="225" y="174" type="curve" smooth="yes"/>
      <point x="235" y="202"/>
      <point x="239" y="241"/>
      <point x="260" y="290" type="curve" smooth="yes"/>
      <point x="278" y="333"/>
      <point x="308" y="393"/>
      <point x="338" y="439" type="curve" smooth="yes"/>
      <point x="373" y="493"/>
      <point x="418" y="549"/>
      <point x="459" y="585" type="curve" smooth="yes"/>
      <point x="475" y="599"/>
      <point x="492" y="618"/>
      <point x="492" y="632" type="curve" smooth="yes"/>
      <point x="492" y="645"/>
      <point x="491" y="662"/>
      <point x="479" y="678" type="curve" smooth="yes"/>
      <point x="464" y="697"/>
      <point x="443" y="713"/>
      <point x="416" y="713" type="curve" smooth="yes"/>
      <point x="405" y="713"/>
      <point x="382" y="691"/>
      <point x="361" y="670" type="curve" smooth="yes"/>
      <point x="320" y="629"/>
      <point x="276" y="574"/>
      <point x="238" y="504" type="curve" smooth="yes"/>
      <point x="190" y="416"/>
      <point x="133" y="289"/>
      <point x="133" y="220" type="curve" smooth="yes"/>
      <point x="133" y="181"/>
      <point x="159" y="152"/>
    </contour>
    <contour>
      <point x="122" y="527" type="curve" smooth="yes"/>
      <point x="148" y="527"/>
      <point x="194" y="545"/>
      <point x="194" y="574" type="curve" smooth="yes"/>
      <point x="194" y="629"/>
      <point x="164" y="697"/>
      <point x="128" y="697" type="curve" smooth="yes"/>
      <point x="95" y="697"/>
      <point x="52" y="676"/>
      <point x="52" y="640" type="curve" smooth="yes"/>
      <point x="52" y="596"/>
      <point x="91" y="527"/>
    </contour>
    <contour>
      <point x="433" y="210" type="curve" smooth="yes"/>
      <point x="458" y="210"/>
      <point x="505" y="227"/>
      <point x="505" y="256" type="curve" smooth="yes"/>
      <point x="505" y="311"/>
      <point x="474" y="379"/>
      <point x="438" y="379" type="curve" smooth="yes"/>
      <point x="405" y="379"/>
      <point x="363" y="359"/>
      <point x="363" y="323" type="curve" smooth="yes"/>
      <point x="363" y="278"/>
      <point x="402" y="210"/>
    </contour>
  </outline>
</glyph>
<glyph name="uni066B" format="2">
  <advance width="324"/>
  <unicode hex="066B"/>
  <outline>
    <contour>
      <point x="108" y="30" type="curve" smooth="yes"/>
      <point x="124" y="30"/>
      <point x="145" y="43"/>
      <point x="169" y="68" type="curve" smooth="yes"/>
      <point x="203" y="104"/>
      <point x="263" y="182"/>
      <point x="263" y="237" type="curve" smooth="yes"/>
      <point x="263" y="285"/>
      <point x="233" y="309"/>
      <point x="188" y="309" type="curve" smooth="yes"/>
      <point x="140" y="309"/>
      <point x="91" y="275"/>
      <point x="91" y="223" type="curve" smooth="yes"/>
      <point x="91" y="191"/>
      <point x="111" y="164"/>
      <point x="143" y="156" type="curve"/>
      <point x="135" y="142"/>
      <point x="124" y="133"/>
      <point x="83" y="87" type="curve" smooth="yes"/>
      <point x="76" y="79"/>
      <point x="73" y="71"/>
      <point x="73" y="61" type="curve" smooth="yes"/>
      <point x="73" y="46"/>
      <point x="86" y="30"/>
    </contour>
  </outline>
</glyph>
<glyph name="uni066C" format="2">
  <advance width="324"/>
  <unicode hex="066C"/>
  <outline>
    <contour>
      <point x="216" y="403" type="curve" smooth="yes"/>
      <point x="200" y="403"/>
      <point x="179" y="390"/>
      <point x="155" y="365" type="curve" smooth="yes"/>
      <point x="121" y="329"/>
      <point x="61" y="251"/>
      <point x="61" y="196" type="curve" smooth="yes"/>
      <point x="61" y="148"/>
      <point x="91" y="124"/>
      <point x="136" y="124" type="curve" smooth="yes"/>
      <point x="184" y="124"/>
      <point x="233" y="158"/>
      <point x="233" y="210" type="curve" smooth="yes"/>
      <point x="233" y="242"/>
      <point x="213" y="269"/>
      <point x="181" y="277" type="curve"/>
      <point x="189" y="291"/>
      <point x="200" y="300"/>
      <point x="241" y="346" type="curve" smooth="yes"/>
      <point x="248" y="354"/>
      <point x="251" y="362"/>
      <point x="251" y="372" type="curve" smooth="yes"/>
      <point x="251" y="387"/>
      <point x="238" y="403"/>
    </contour>
  </outline>
</glyph>
<glyph name="uni0780" format="2">
  <advance width="543"/>
  <unicode hex="0780"/>
  <outline>
    <contour>
      <point x="90" y="-10" type="curve" smooth="yes"/>
      <point x="167" y="-10"/>
      <point x="253" y="56"/>
      <point x="367" y="153" type="curve" smooth="yes"/>
      <point x="439" y="215"/>
      <point x="476" y="255"/>
      <point x="495" y="282" type="curve" smooth="yes"/>
      <point x="514" y="309"/>
      <point x="514" y="323"/>
      <point x="514" y="333" type="curve" smooth="yes"/>
      <point x="514" y="359"/>
      <point x="499" y="376"/>
      <point x="468" y="376" type="curve" smooth="yes"/>
      <point x="446" y="376"/>
      <point x="417" y="364"/>
      <point x="386" y="328" type="curve" smooth="yes"/>
      <point x="361" y="298"/>
      <point x="305" y="251"/>
      <point x="272" y="228" type="curve" smooth="yes"/>
      <point x="199" y="177"/>
      <point x="139" y="136"/>
      <point x="77" y="120" type="curve" smooth="yes"/>
      <point x="36" y="109"/>
      <point x="15" y="86"/>
      <point x="15" y="50" type="curve" smooth="yes"/>
      <point x="15" y="12"/>
      <point x="42" y="-10"/>
    </contour>
  </outline>
</glyph>
<glyph name="uni0781" format="2">
  <advance width="684"/>
  <unicode hex="0781"/>
  <outline>
    <contour>
      <point x="14" y="-78" type="curve" smooth="yes"/>
      <point x="34" y="-78"/>
      <point x="65" y="-70"/>
      <point x="104" y="-44" type="curve" smooth="yes"/>
      <point x="207" y="24"/>
      <point x="266" y="90"/>
      <point x="355" y="198" type="curve"/>
      <point x="360" y="198"/>
      <point x="366" y="198"/>
      <point x="371" y="198" type="curve" smooth="yes"/>
      <point x="442" y="200"/>
      <point x="513" y="214"/>
      <point x="578" y="254" type="curve" smooth="yes"/>
      <point x="644" y="294"/>
      <point x="669" y="323"/>
      <point x="669" y="363" type="curve" smooth="yes"/>
      <point x="669" y="385"/>
      <point x="651" y="405"/>
      <point x="620" y="405" type="curve" smooth="yes"/>
      <point x="603" y="405"/>
      <point x="584" y="395"/>
      <point x="562" y="374" type="curve" smooth="yes"/>
      <point x="525" y="340"/>
      <point x="486" y="324"/>
      <point x="443" y="321" type="curve"/>
      <point x="421" y="353"/>
      <point x="390" y="376"/>
      <point x="336" y="376" type="curve" smooth="yes"/>
      <point x="277" y="376"/>
      <point x="234" y="339"/>
      <point x="234" y="287" type="curve" smooth="yes"/>
      <point x="234" y="270"/>
      <point x="241" y="245"/>
      <point x="251" y="235" type="curve"/>
      <point x="222" y="196"/>
      <point x="167" y="137"/>
      <point x="73" y="83" type="curve" smooth="yes"/>
      <point x="54" y="72"/>
      <point x="24" y="60"/>
      <point x="-4" y="51" type="curve" smooth="yes"/>
      <point x="-40" y="39"/>
      <point x="-58" y="19"/>
      <point x="-58" y="-12" type="curve" smooth="yes"/>
      <point x="-58" y="-54"/>
      <point x="-33" y="-78"/>
    </contour>
  </outline>
</glyph>
<glyph name="uni0782" format="2">
  <advance width="820"/>
  <unicode hex="0782"/>
  <outline>
    <contour>
      <point x="16" y="-78" type="curve" smooth="yes"/>
      <point x="37" y="-78"/>
      <point x="65" y="-70"/>
      <point x="109" y="-43" type="curve" smooth="yes"/>
      <point x="181" y="2"/>
      <point x="285" y="101"/>
      <point x="352" y="200" type="curve"/>
      <point x="358" y="199"/>
      <point x="369" y="196"/>
      <point x="390" y="196" type="curve" smooth="yes"/>
      <point x="422" y="196"/>
      <point x="460" y="206"/>
      <point x="496" y="223" type="curve"/>
      <point x="521" y="199"/>
      <point x="546" y="188"/>
      <point x="593" y="188" type="curve" smooth="yes"/>
      <point x="675" y="188"/>
      <point x="745" y="228"/>
      <point x="785" y="294" type="curve" smooth="yes"/>
      <point x="797" y="314"/>
      <point x="805" y="334"/>
      <point x="805" y="354" type="curve" smooth="yes"/>
      <point x="805" y="390"/>
      <point x="787" y="405"/>
      <point x="756" y="405" type="curve" smooth="yes"/>
      <point x="736" y="405"/>
      <point x="720" y="398"/>
      <point x="702" y="373" type="curve" smooth="yes"/>
      <point x="665" y="322"/>
      <point x="647" y="293"/>
      <point x="618" y="293" type="curve" smooth="yes"/>
      <point x="614" y="293"/>
      <point x="605" y="293"/>
      <point x="601" y="293" type="curve"/>
      <point x="604" y="303"/>
      <point x="607" y="316"/>
      <point x="607" y="333" type="curve" smooth="yes"/>
      <point x="607" y="374"/>
      <point x="585" y="391"/>
      <point x="553" y="391" type="curve" smooth="yes"/>
      <point x="531" y="391"/>
      <point x="516" y="375"/>
      <point x="500" y="356" type="curve" smooth="yes"/>
      <point x="484" y="337"/>
      <point x="469" y="316"/>
      <point x="448" y="310" type="curve"/>
      <point x="434" y="343"/>
      <point x="391" y="376"/>
      <point x="339" y="376" type="curve" smooth="yes"/>
      <point x="276" y="376"/>
      <point x="235" y="333"/>
      <point x="235" y="287" type="curve" smooth="yes"/>
      <point x="235" y="272"/>
      <point x="240" y="247"/>
      <point x="250" y="233" type="curve"/>
      <point x="176" y="157"/>
      <point x="96" y="92"/>
      <point x="18" y="59" type="curve" smooth="yes"/>
      <point x="-38" y="35"/>
      <point x="-57" y="19"/>
      <point x="-57" y="-12" type="curve" smooth="yes"/>
      <point x="-57" y="-54"/>
      <point x="-32" y="-78"/>
    </contour>
  </outline>
</glyph>
<glyph name="uni0783" format="2">
  <advance width="652"/>
  <unicode hex="0783"/>
  <outline>
    <contour>
      <point x="18" y="-78" type="curve" smooth="yes"/>
      <point x="49" y="-78"/>
      <point x="113" y="-51"/>
      <point x="188" y="2" type="curve" smooth="yes"/>
      <point x="256" y="50"/>
      <point x="312" y="101"/>
      <point x="388" y="171" type="curve"/>
      <point x="433" y="157"/>
      <point x="480" y="149"/>
      <point x="522" y="149" type="curve" smooth="yes"/>
      <point x="582" y="149"/>
      <point x="617" y="168"/>
      <point x="617" y="198" type="curve" smooth="yes"/>
      <point x="617" y="234"/>
      <point x="582" y="248"/>
      <point x="536" y="248" type="curve" smooth="yes"/>
      <point x="519" y="248"/>
      <point x="502" y="249"/>
      <point x="490" y="252" type="curve"/>
      <point x="523" y="279"/>
      <point x="559" y="302"/>
      <point x="589" y="325" type="curve" smooth="yes"/>
      <point x="616" y="346"/>
      <point x="637" y="363"/>
      <point x="637" y="377" type="curve" smooth="yes"/>
      <point x="637" y="403"/>
      <point x="620" y="420"/>
      <point x="583" y="420" type="curve" smooth="yes"/>
      <point x="533" y="420"/>
      <point x="468" y="377"/>
      <point x="390" y="314" type="curve"/>
      <point x="373" y="328"/>
      <point x="340" y="349"/>
      <point x="311" y="349" type="curve" smooth="yes"/>
      <point x="264" y="349"/>
      <point x="246" y="324"/>
      <point x="246" y="290" type="curve" smooth="yes"/>
      <point x="246" y="265"/>
      <point x="259" y="243"/>
      <point x="284" y="223" type="curve"/>
      <point x="201" y="148"/>
      <point x="140" y="107"/>
      <point x="90" y="83" type="curve" smooth="yes"/>
      <point x="58" y="68"/>
      <point x="30" y="59"/>
      <point x="5" y="53" type="curve" smooth="yes"/>
      <point x="-37" y="43"/>
      <point x="-59" y="21"/>
      <point x="-59" y="-12" type="curve" smooth="yes"/>
      <point x="-59" y="-52"/>
      <point x="-33" y="-78"/>
    </contour>
  </outline>
</glyph>
<glyph name="uni0784" format="2">
  <advance width="745"/>
  <unicode hex="0784"/>
  <outline>
    <contour>
      <point x="298" y="-15" type="curve" smooth="yes"/>
      <point x="489" y="-15"/>
      <point x="686" y="101"/>
      <point x="686" y="268" type="curve" smooth="yes"/>
      <point x="686" y="328"/>
      <point x="646" y="376"/>
      <point x="561" y="376" type="curve" smooth="yes"/>
      <point x="498" y="376"/>
      <point x="431" y="341"/>
      <point x="399" y="314" type="curve"/>
      <point x="376" y="331"/>
      <point x="328" y="346"/>
      <point x="284" y="346" type="curve" smooth="yes"/>
      <point x="139" y="346"/>
      <point x="55" y="261"/>
      <point x="55" y="149" type="curve" smooth="yes"/>
      <point x="55" y="53"/>
      <point x="155" y="-15"/>
    </contour>
    <contour>
      <point x="228" y="96" type="curve"/>
      <point x="204" y="109"/>
      <point x="179" y="126"/>
      <point x="179" y="157" type="curve" smooth="yes"/>
      <point x="179" y="207"/>
      <point x="225" y="240"/>
      <point x="276" y="240" type="curve" smooth="yes"/>
      <point x="283" y="240"/>
      <point x="308" y="236"/>
      <point x="314" y="233" type="curve"/>
      <point x="288" y="208"/>
      <point x="235" y="125"/>
    </contour>
    <contour>
      <point x="327" y="86" type="curve"/>
      <point x="364" y="165"/>
      <point x="461" y="270"/>
      <point x="534" y="270" type="curve" smooth="yes"/>
      <point x="549" y="270"/>
      <point x="561" y="263"/>
      <point x="561" y="250" type="curve" smooth="yes"/>
      <point x="561" y="174"/>
      <point x="468" y="102"/>
    </contour>
  </outline>
</glyph>
<glyph name="uni0785" format="2">
  <advance width="553"/>
  <unicode hex="0785"/>
  <outline>
    <contour>
      <point x="15" y="-78" type="curve" smooth="yes"/>
      <point x="79" y="-78"/>
      <point x="168" y="-27"/>
      <point x="318" y="79" type="curve" smooth="yes"/>
      <point x="419" y="150"/>
      <point x="482" y="204"/>
      <point x="514" y="247" type="curve" smooth="yes"/>
      <point x="531" y="269"/>
      <point x="539" y="288"/>
      <point x="539" y="304" type="curve" smooth="yes"/>
      <point x="539" y="327"/>
      <point x="523" y="344"/>
      <point x="495" y="344" type="curve" smooth="yes"/>
      <point x="478" y="344"/>
      <point x="454" y="330"/>
      <point x="426" y="302" type="curve" smooth="yes"/>
      <point x="401" y="277"/>
      <point x="377" y="254"/>
      <point x="360" y="239" type="curve"/>
      <point x="340" y="244"/>
      <point x="328" y="262"/>
      <point x="328" y="284" type="curve" smooth="yes"/>
      <point x="328" y="309"/>
      <point x="336" y="323"/>
      <point x="348" y="335" type="curve" smooth="yes"/>
      <point x="375" y="360"/>
      <point x="375" y="366"/>
      <point x="375" y="375" type="curve" smooth="yes"/>
      <point x="375" y="404"/>
      <point x="354" y="420"/>
      <point x="320" y="420" type="curve" smooth="yes"/>
      <point x="302" y="420"/>
      <point x="286" y="415"/>
      <point x="271" y="406" type="curve" smooth="yes"/>
      <point x="232" y="383"/>
      <point x="206" y="335"/>
      <point x="206" y="287" type="curve" smooth="yes"/>
      <point x="206" y="236"/>
      <point x="233" y="197"/>
      <point x="271" y="174" type="curve"/>
      <point x="227" y="146"/>
      <point x="192" y="125"/>
      <point x="145" y="103" type="curve" smooth="yes"/>
      <point x="92" y="78"/>
      <point x="54" y="61"/>
      <point x="15" y="55" type="curve" smooth="yes"/>
      <point x="-34" y="47"/>
      <point x="-59" y="25"/>
      <point x="-59" y="-10" type="curve" smooth="yes"/>
      <point x="-59" y="-52"/>
      <point x="-35" y="-78"/>
    </contour>
  </outline>
</glyph>
<glyph name="uni0786" format="2">
  <advance width="563"/>
  <unicode hex="0786"/>
  <outline>
    <contour>
      <point x="94" y="-10" type="curve" smooth="yes"/>
      <point x="164" y="-10"/>
      <point x="260" y="31"/>
      <point x="410" y="161" type="curve" smooth="yes"/>
      <point x="453" y="198"/>
      <point x="485" y="231"/>
      <point x="505" y="260" type="curve" smooth="yes"/>
      <point x="522" y="285"/>
      <point x="531" y="306"/>
      <point x="531" y="324" type="curve" smooth="yes"/>
      <point x="531" y="355"/>
      <point x="517" y="376"/>
      <point x="481" y="376" type="curve" smooth="yes"/>
      <point x="453" y="376"/>
      <point x="426" y="359"/>
      <point x="404" y="325" type="curve" smooth="yes"/>
      <point x="376" y="281"/>
      <point x="293" y="189"/>
      <point x="225" y="146" type="curve" smooth="yes"/>
      <point x="214" y="139"/>
      <point x="200" y="131"/>
      <point x="190" y="126" type="curve"/>
      <point x="231" y="171"/>
      <point x="267" y="231"/>
      <point x="267" y="275" type="curve" smooth="yes"/>
      <point x="267" y="317"/>
      <point x="253" y="345"/>
      <point x="208" y="345" type="curve" smooth="yes"/>
      <point x="167" y="345"/>
      <point x="140" y="328"/>
      <point x="128" y="255" type="curve" smooth="yes"/>
      <point x="122" y="220"/>
      <point x="112" y="187"/>
      <point x="90" y="153" type="curve" smooth="yes"/>
      <point x="38" y="70"/>
      <point x="30" y="69"/>
      <point x="30" y="37" type="curve" smooth="yes"/>
      <point x="30" y="12"/>
      <point x="58" y="-10"/>
    </contour>
  </outline>
</glyph>
<glyph name="uni0787" format="2">
  <advance width="544"/>
  <unicode hex="0787"/>
  <outline>
    <contour>
      <point x="11" y="-10" type="curve" smooth="yes"/>
      <point x="49" y="-10"/>
      <point x="99" y="20"/>
      <point x="180" y="74" type="curve" smooth="yes"/>
      <point x="230" y="108"/>
      <point x="336" y="203"/>
      <point x="362" y="237" type="curve"/>
      <point x="362" y="205"/>
      <point x="344" y="169"/>
      <point x="320" y="130" type="curve" smooth="yes"/>
      <point x="300" y="98"/>
      <point x="281" y="73"/>
      <point x="281" y="48" type="curve" smooth="yes"/>
      <point x="281" y="19"/>
      <point x="305" y="0"/>
      <point x="342" y="0" type="curve" smooth="yes"/>
      <point x="371" y="0"/>
      <point x="398" y="20"/>
      <point x="430" y="73" type="curve" smooth="yes"/>
      <point x="466" y="132"/>
      <point x="486" y="194"/>
      <point x="486" y="270" type="curve" smooth="yes"/>
      <point x="486" y="344"/>
      <point x="458" y="376"/>
      <point x="405" y="376" type="curve" smooth="yes"/>
      <point x="370" y="376"/>
      <point x="331" y="353"/>
      <point x="288" y="306" type="curve" smooth="yes"/>
      <point x="248" y="262"/>
      <point x="193" y="217"/>
      <point x="134" y="180" type="curve" smooth="yes"/>
      <point x="89" y="152"/>
      <point x="41" y="130"/>
      <point x="-3" y="117" type="curve" smooth="yes"/>
      <point x="-39" y="106"/>
      <point x="-59" y="83"/>
      <point x="-59" y="50" type="curve" smooth="yes"/>
      <point x="-59" y="11"/>
      <point x="-35" y="-10"/>
    </contour>
  </outline>
</glyph>
<glyph name="uni0788" format="2">
  <advance width="558"/>
  <unicode hex="0788"/>
  <outline>
    <contour>
      <point x="17" y="-78" type="curve" smooth="yes"/>
      <point x="41" y="-78"/>
      <point x="96" y="-61"/>
      <point x="170" y="-17" type="curve" smooth="yes"/>
      <point x="259" y="36"/>
      <point x="411" y="153"/>
      <point x="461" y="221" type="curve" smooth="yes"/>
      <point x="487" y="257"/>
      <point x="503" y="295"/>
      <point x="503" y="333" type="curve" smooth="yes"/>
      <point x="503" y="390"/>
      <point x="453" y="420"/>
      <point x="378" y="420" type="curve" smooth="yes"/>
      <point x="270" y="420"/>
      <point x="138" y="325"/>
      <point x="138" y="227" type="curve" smooth="yes"/>
      <point x="138" y="188"/>
      <point x="157" y="152"/>
      <point x="202" y="137" type="curve"/>
      <point x="191" y="129"/>
      <point x="170" y="117"/>
      <point x="154" y="109" type="curve" smooth="yes"/>
      <point x="93" y="78"/>
      <point x="29" y="55"/>
      <point x="3" y="47" type="curve" smooth="yes"/>
      <point x="-35" y="35"/>
      <point x="-59" y="20"/>
      <point x="-59" y="-14" type="curve" smooth="yes"/>
      <point x="-59" y="-53"/>
      <point x="-34" y="-78"/>
    </contour>
    <contour>
      <point x="309" y="210" type="curve"/>
      <point x="284" y="214"/>
      <point x="262" y="224"/>
      <point x="262" y="239" type="curve" smooth="yes"/>
      <point x="262" y="279"/>
      <point x="316" y="324"/>
      <point x="359" y="324" type="curve" smooth="yes"/>
      <point x="375" y="324"/>
      <point x="378" y="314"/>
      <point x="378" y="308" type="curve" smooth="yes"/>
      <point x="378" y="279"/>
      <point x="359" y="251"/>
    </contour>
  </outline>
</glyph>
<glyph name="uni0789" format="2">
  <advance width="521"/>
  <unicode hex="0789"/>
  <outline>
    <contour>
      <point x="37" y="-20" type="curve" smooth="yes"/>
      <point x="52" y="-20"/>
      <point x="75" y="-17"/>
      <point x="105" y="-7" type="curve" smooth="yes"/>
      <point x="138" y="4"/>
      <point x="178" y="21"/>
      <point x="224" y="46" type="curve" smooth="yes"/>
      <point x="293" y="83"/>
      <point x="396" y="158"/>
      <point x="446" y="219" type="curve" smooth="yes"/>
      <point x="475" y="255"/>
      <point x="482" y="286"/>
      <point x="482" y="313" type="curve" smooth="yes"/>
      <point x="482" y="374"/>
      <point x="405" y="405"/>
      <point x="291" y="405" type="curve" smooth="yes"/>
      <point x="231" y="405"/>
      <point x="188" y="400"/>
      <point x="158" y="390" type="curve" smooth="yes"/>
      <point x="117" y="377"/>
      <point x="102" y="355"/>
      <point x="102" y="328" type="curve" smooth="yes"/>
      <point x="102" y="298"/>
      <point x="123" y="274"/>
      <point x="160" y="274" type="curve" smooth="yes"/>
      <point x="176" y="274"/>
      <point x="198" y="281"/>
      <point x="225" y="290" type="curve" smooth="yes"/>
      <point x="250" y="298"/>
      <point x="280" y="305"/>
      <point x="308" y="305" type="curve" smooth="yes"/>
      <point x="330" y="305"/>
      <point x="354" y="303"/>
      <point x="354" y="294" type="curve" smooth="yes"/>
      <point x="354" y="278"/>
      <point x="326" y="251"/>
      <point x="282" y="216" type="curve" smooth="yes"/>
      <point x="213" y="162"/>
      <point x="142" y="137"/>
      <point x="86" y="122" type="curve" smooth="yes"/>
      <point x="63" y="116"/>
      <point x="43" y="111"/>
      <point x="27" y="107" type="curve" smooth="yes"/>
      <point x="-17" y="96"/>
      <point x="-40" y="75"/>
      <point x="-40" y="40" type="curve" smooth="yes"/>
      <point x="-40" y="0"/>
      <point x="-15" y="-20"/>
    </contour>
  </outline>
</glyph>
<glyph name="uni078B" format="2">
  <advance width="633"/>
  <unicode hex="078B"/>
  <outline>
    <contour>
      <point x="14" y="-78" type="curve" smooth="yes"/>
      <point x="41" y="-78"/>
      <point x="79" y="-68"/>
      <point x="138" y="-25" type="curve" smooth="yes"/>
      <point x="234" y="45"/>
      <point x="247" y="56"/>
      <point x="313" y="135" type="curve"/>
      <point x="329" y="132"/>
      <point x="345" y="132"/>
      <point x="357" y="132" type="curve" smooth="yes"/>
      <point x="492" y="132"/>
      <point x="589" y="208"/>
      <point x="589" y="307" type="curve" smooth="yes"/>
      <point x="589" y="336"/>
      <point x="571" y="371"/>
      <point x="546" y="384" type="curve"/>
      <point x="570" y="394"/>
      <point x="604" y="409"/>
      <point x="604" y="440" type="curve" smooth="yes"/>
      <point x="604" y="468"/>
      <point x="585" y="488"/>
      <point x="557" y="488" type="curve" smooth="yes"/>
      <point x="537" y="488"/>
      <point x="517" y="480"/>
      <point x="492" y="464" type="curve" smooth="yes"/>
      <point x="458" y="443"/>
      <point x="390" y="446"/>
      <point x="390" y="392" type="curve" smooth="yes"/>
      <point x="390" y="372"/>
      <point x="406" y="355"/>
      <point x="439" y="345" type="curve" smooth="yes"/>
      <point x="455" y="340"/>
      <point x="465" y="325"/>
      <point x="465" y="305" type="curve" smooth="yes"/>
      <point x="465" y="256"/>
      <point x="428" y="242"/>
      <point x="383" y="242" type="curve" smooth="yes"/>
      <point x="370" y="242"/>
      <point x="357" y="243"/>
      <point x="346" y="246" type="curve"/>
      <point x="335" y="279"/>
      <point x="308" y="302"/>
      <point x="276" y="302" type="curve" smooth="yes"/>
      <point x="229" y="302"/>
      <point x="193" y="274"/>
      <point x="193" y="223" type="curve" smooth="yes"/>
      <point x="193" y="207"/>
      <point x="199" y="193"/>
      <point x="211" y="180" type="curve"/>
      <point x="168" y="136"/>
      <point x="133" y="110"/>
      <point x="98" y="91" type="curve" smooth="yes"/>
      <point x="68" y="75"/>
      <point x="39" y="63"/>
      <point x="6" y="53" type="curve" smooth="yes"/>
      <point x="-35" y="40"/>
      <point x="-59" y="20"/>
      <point x="-59" y="-12" type="curve" smooth="yes"/>
      <point x="-59" y="-54"/>
      <point x="-34" y="-78"/>
    </contour>
  </outline>
</glyph>
<glyph name="uni078D" format="2">
  <advance width="569"/>
  <unicode hex="078D"/>
  <outline>
    <contour>
      <point x="17" y="-78" type="curve" smooth="yes"/>
      <point x="43" y="-78"/>
      <point x="84" y="-68"/>
      <point x="177" y="-12" type="curve" smooth="yes"/>
      <point x="318" y="73"/>
      <point x="493" y="268"/>
      <point x="508" y="294" type="curve" smooth="yes"/>
      <point x="517" y="309"/>
      <point x="521" y="321"/>
      <point x="521" y="333" type="curve" smooth="yes"/>
      <point x="521" y="360"/>
      <point x="505" y="376"/>
      <point x="476" y="376" type="curve" smooth="yes"/>
      <point x="458" y="376"/>
      <point x="439" y="369"/>
      <point x="412" y="365" type="curve" smooth="yes"/>
      <point x="388" y="361"/>
      <point x="357" y="356"/>
      <point x="337" y="355" type="curve"/>
      <point x="360" y="369"/>
      <point x="378" y="385"/>
      <point x="390" y="400" type="curve" smooth="yes"/>
      <point x="402" y="414"/>
      <point x="408" y="428"/>
      <point x="408" y="438" type="curve" smooth="yes"/>
      <point x="408" y="466"/>
      <point x="386" y="488"/>
      <point x="355" y="488" type="curve" smooth="yes"/>
      <point x="333" y="488"/>
      <point x="313" y="480"/>
      <point x="299" y="463" type="curve" smooth="yes"/>
      <point x="271" y="431"/>
      <point x="250" y="404"/>
      <point x="218" y="381" type="curve" smooth="yes"/>
      <point x="195" y="365"/>
      <point x="179" y="345"/>
      <point x="179" y="327" type="curve" smooth="yes"/>
      <point x="179" y="290"/>
      <point x="215" y="264"/>
      <point x="280" y="264" type="curve" smooth="yes"/>
      <point x="305" y="264"/>
      <point x="342" y="266"/>
      <point x="357" y="270" type="curve"/>
      <point x="325" y="241"/>
      <point x="287" y="212"/>
      <point x="236" y="175" type="curve" smooth="yes"/>
      <point x="127" y="95"/>
      <point x="69" y="73"/>
      <point x="3" y="53" type="curve" smooth="yes"/>
      <point x="-38" y="41"/>
      <point x="-60" y="22"/>
      <point x="-60" y="-12" type="curve" smooth="yes"/>
      <point x="-60" y="-52"/>
      <point x="-34" y="-78"/>
    </contour>
  </outline>
</glyph>
<glyph name="uni078E" format="2">
  <advance width="502"/>
  <unicode hex="078E"/>
  <outline>
    <contour>
      <point x="65" y="-44" type="curve" smooth="yes"/>
      <point x="206" y="-44"/>
      <point x="365" y="10"/>
      <point x="365" y="112" type="curve" smooth="yes"/>
      <point x="365" y="137"/>
      <point x="344" y="160"/>
      <point x="323" y="180" type="curve" smooth="yes"/>
      <point x="304" y="198"/>
      <point x="293" y="217"/>
      <point x="293" y="221" type="curve" smooth="yes"/>
      <point x="293" y="230"/>
      <point x="299" y="239"/>
      <point x="329" y="256" type="curve" smooth="yes"/>
      <point x="347" y="266"/>
      <point x="377" y="281"/>
      <point x="407" y="295" type="curve" smooth="yes"/>
      <point x="446" y="314"/>
      <point x="473" y="330"/>
      <point x="473" y="357" type="curve" smooth="yes"/>
      <point x="473" y="383"/>
      <point x="456" y="411"/>
      <point x="426" y="411" type="curve" smooth="yes"/>
      <point x="405" y="411"/>
      <point x="369" y="394"/>
      <point x="329" y="374" type="curve" smooth="yes"/>
      <point x="279" y="349"/>
      <point x="253" y="332"/>
      <point x="240" y="323" type="curve" smooth="yes"/>
      <point x="187" y="287"/>
      <point x="175" y="250"/>
      <point x="175" y="222" type="curve" smooth="yes"/>
      <point x="175" y="193"/>
      <point x="188" y="176"/>
      <point x="207" y="152" type="curve" smooth="yes"/>
      <point x="219" y="137"/>
      <point x="237" y="114"/>
      <point x="237" y="103" type="curve" smooth="yes"/>
      <point x="237" y="79"/>
      <point x="171" y="64"/>
      <point x="90" y="64" type="curve" smooth="yes"/>
      <point x="64" y="64"/>
      <point x="43" y="70"/>
      <point x="27" y="75" type="curve" smooth="yes"/>
      <point x="11" y="80"/>
      <point x="1" y="83"/>
      <point x="-10" y="83" type="curve" smooth="yes"/>
      <point x="-35" y="83"/>
      <point x="-56" y="55"/>
      <point x="-56" y="20" type="curve" smooth="yes"/>
      <point x="-56" y="-9"/>
      <point x="-36" y="-25"/>
      <point x="-9" y="-34" type="curve" smooth="yes"/>
      <point x="13" y="-41"/>
      <point x="39" y="-44"/>
    </contour>
  </outline>
</glyph>
<glyph name="uni078F" format="2">
  <advance width="733"/>
  <unicode hex="078F"/>
  <outline>
    <contour>
      <point x="286" y="-156" type="curve" smooth="yes"/>
      <point x="371" y="-156"/>
      <point x="428" y="-149"/>
      <point x="463" y="-136" type="curve" smooth="yes"/>
      <point x="491" y="-126"/>
      <point x="504" y="-108"/>
      <point x="504" y="-87" type="curve" smooth="yes"/>
      <point x="504" y="-57"/>
      <point x="483" y="-39"/>
      <point x="454" y="-39" type="curve" smooth="yes"/>
      <point x="431" y="-39"/>
      <point x="411" y="-42"/>
      <point x="392" y="-44" type="curve" smooth="yes"/>
      <point x="362" y="-47"/>
      <point x="333" y="-50"/>
      <point x="292" y="-50" type="curve" smooth="yes"/>
      <point x="213" y="-50"/>
      <point x="174" y="-30"/>
      <point x="174" y="13" type="curve" smooth="yes"/>
      <point x="174" y="74"/>
      <point x="216" y="137"/>
      <point x="286" y="182" type="curve"/>
      <point x="298" y="171"/>
      <point x="320" y="158"/>
      <point x="338" y="158" type="curve" smooth="yes"/>
      <point x="364" y="158"/>
      <point x="390" y="176"/>
      <point x="417" y="211" type="curve"/>
      <point x="435" y="174"/>
      <point x="443" y="150"/>
      <point x="487" y="150" type="curve" smooth="yes"/>
      <point x="540" y="150"/>
      <point x="590" y="199"/>
      <point x="653" y="258" type="curve" smooth="yes"/>
      <point x="687" y="289"/>
      <point x="704" y="318"/>
      <point x="704" y="345" type="curve" smooth="yes"/>
      <point x="704" y="373"/>
      <point x="688" y="391"/>
      <point x="653" y="391" type="curve" smooth="yes"/>
      <point x="634" y="391"/>
      <point x="617" y="386"/>
      <point x="601" y="374" type="curve" smooth="yes"/>
      <point x="589" y="365"/>
      <point x="577" y="351"/>
      <point x="565" y="331" type="curve" smooth="yes"/>
      <point x="544" y="294"/>
      <point x="523" y="259"/>
      <point x="510" y="259" type="curve" smooth="yes"/>
      <point x="500" y="259"/>
      <point x="497" y="284"/>
      <point x="494" y="336" type="curve" smooth="yes"/>
      <point x="493" y="354"/>
      <point x="483" y="376"/>
      <point x="452" y="376" type="curve" smooth="yes"/>
      <point x="439" y="376"/>
      <point x="427" y="361"/>
      <point x="416" y="347" type="curve" smooth="yes"/>
      <point x="373" y="294"/>
      <point x="359" y="282"/>
      <point x="350" y="282" type="curve" smooth="yes"/>
      <point x="344" y="282"/>
      <point x="336" y="305"/>
      <point x="325" y="328" type="curve" smooth="yes"/>
      <point x="311" y="358"/>
      <point x="293" y="376"/>
      <point x="273" y="376" type="curve" smooth="yes"/>
      <point x="216" y="376"/>
      <point x="167" y="325"/>
      <point x="167" y="286" type="curve" smooth="yes"/>
      <point x="167" y="266"/>
      <point x="178" y="258"/>
      <point x="193" y="248" type="curve" smooth="yes"/>
      <point x="200" y="243"/>
      <point x="211" y="237"/>
      <point x="219" y="233" type="curve"/>
      <point x="125" y="175"/>
      <point x="49" y="96"/>
      <point x="49" y="2" type="curve" smooth="yes"/>
      <point x="49" y="-101"/>
      <point x="132" y="-156"/>
    </contour>
  </outline>
</glyph>
<glyph name="uni0791" format="2">
  <advance width="403"/>
  <unicode hex="0791"/>
  <outline>
    <contour>
      <point x="250" y="-44" type="curve" smooth="yes"/>
      <point x="306" y="-44"/>
      <point x="334" y="-26"/>
      <point x="334" y="14" type="curve" smooth="yes"/>
      <point x="334" y="48"/>
      <point x="319" y="63"/>
      <point x="284" y="63" type="curve" smooth="yes"/>
      <point x="265" y="63"/>
      <point x="250" y="62"/>
      <point x="233" y="62" type="curve" smooth="yes"/>
      <point x="188" y="62"/>
      <point x="144" y="83"/>
      <point x="144" y="99" type="curve" smooth="yes"/>
      <point x="144" y="106"/>
      <point x="155" y="113"/>
      <point x="172" y="123" type="curve" smooth="yes"/>
      <point x="227" y="155"/>
      <point x="286" y="161"/>
      <point x="286" y="215" type="curve" smooth="yes"/>
      <point x="286" y="235"/>
      <point x="275" y="248"/>
      <point x="250" y="256" type="curve" smooth="yes"/>
      <point x="208" y="270"/>
      <point x="186" y="277"/>
      <point x="173" y="280" type="curve"/>
      <point x="178" y="283"/>
      <point x="206" y="302"/>
      <point x="227" y="317" type="curve" smooth="yes"/>
      <point x="246" y="331"/>
      <point x="252" y="336"/>
      <point x="252" y="355" type="curve" smooth="yes"/>
      <point x="252" y="377"/>
      <point x="235" y="398"/>
      <point x="202" y="398" type="curve" smooth="yes"/>
      <point x="192" y="398"/>
      <point x="176" y="390"/>
      <point x="159" y="380" type="curve" smooth="yes"/>
      <point x="130" y="363"/>
      <point x="98" y="336"/>
      <point x="77" y="316" type="curve" smooth="yes"/>
      <point x="53" y="294"/>
      <point x="39" y="286"/>
      <point x="39" y="256" type="curve" smooth="yes"/>
      <point x="39" y="234"/>
      <point x="54" y="220"/>
      <point x="87" y="212" type="curve" smooth="yes"/>
      <point x="116" y="205"/>
      <point x="135" y="202"/>
      <point x="146" y="201" type="curve"/>
      <point x="84" y="175"/>
      <point x="24" y="143"/>
      <point x="24" y="88" type="curve" smooth="yes"/>
      <point x="24" y="14"/>
      <point x="161" y="-44"/>
    </contour>
  </outline>
</glyph>
<glyph name="uni0792" format="2">
  <advance width="576"/>
  <unicode hex="0792"/>
  <outline>
    <contour>
      <point x="263" y="-156" type="curve" smooth="yes"/>
      <point x="319" y="-156"/>
      <point x="363" y="-151"/>
      <point x="394" y="-140" type="curve" smooth="yes"/>
      <point x="426" y="-129"/>
      <point x="444" y="-113"/>
      <point x="444" y="-90" type="curve" smooth="yes"/>
      <point x="444" y="-56"/>
      <point x="428" y="-40"/>
      <point x="403" y="-40" type="curve" smooth="yes"/>
      <point x="381" y="-40"/>
      <point x="361" y="-44"/>
      <point x="344" y="-46" type="curve" smooth="yes"/>
      <point x="321" y="-49"/>
      <point x="296" y="-50"/>
      <point x="270" y="-50" type="curve" smooth="yes"/>
      <point x="194" y="-50"/>
      <point x="174" y="-36"/>
      <point x="174" y="-11" type="curve" smooth="yes"/>
      <point x="174" y="16"/>
      <point x="188" y="63"/>
      <point x="281" y="125" type="curve"/>
      <point x="305" y="112"/>
      <point x="333" y="100"/>
      <point x="360" y="93" type="curve" smooth="yes"/>
      <point x="376" y="89"/>
      <point x="391" y="86"/>
      <point x="406" y="86" type="curve" smooth="yes"/>
      <point x="450" y="86"/>
      <point x="466" y="110"/>
      <point x="466" y="139" type="curve" smooth="yes"/>
      <point x="466" y="164"/>
      <point x="455" y="170"/>
      <point x="423" y="180" type="curve" smooth="yes"/>
      <point x="414" y="183"/>
      <point x="405" y="187"/>
      <point x="396" y="191" type="curve"/>
      <point x="438" y="217"/>
      <point x="477" y="240"/>
      <point x="512" y="255" type="curve" smooth="yes"/>
      <point x="540" y="267"/>
      <point x="552" y="284"/>
      <point x="552" y="313" type="curve" smooth="yes"/>
      <point x="552" y="343"/>
      <point x="526" y="361"/>
      <point x="500" y="361" type="curve" smooth="yes"/>
      <point x="485" y="361"/>
      <point x="460" y="352"/>
      <point x="426" y="336" type="curve" smooth="yes"/>
      <point x="391" y="319"/>
      <point x="347" y="295"/>
      <point x="298" y="265" type="curve"/>
      <point x="291" y="273"/>
      <point x="281" y="284"/>
      <point x="275" y="290" type="curve" smooth="yes"/>
      <point x="262" y="303"/>
      <point x="254" y="311"/>
      <point x="230" y="311" type="curve" smooth="yes"/>
      <point x="202" y="311"/>
      <point x="173" y="278"/>
      <point x="173" y="249" type="curve" smooth="yes"/>
      <point x="173" y="224"/>
      <point x="187" y="209"/>
      <point x="202" y="190" type="curve"/>
      <point x="115" y="129"/>
      <point x="50" y="70"/>
      <point x="50" y="-23" type="curve" smooth="yes"/>
      <point x="50" y="-100"/>
      <point x="117" y="-156"/>
    </contour>
  </outline>
</glyph>
<glyph name="uni0793" format="2">
  <advance width="683"/>
  <unicode hex="0793"/>
  <outline>
    <contour>
      <point x="292" y="-156" type="curve" smooth="yes"/>
      <point x="362" y="-156"/>
      <point x="415" y="-151"/>
      <point x="452" y="-140" type="curve" smooth="yes"/>
      <point x="497" y="-127"/>
      <point x="519" y="-106"/>
      <point x="519" y="-78" type="curve" smooth="yes"/>
      <point x="519" y="-47"/>
      <point x="498" y="-34"/>
      <point x="468" y="-34" type="curve" smooth="yes"/>
      <point x="439" y="-34"/>
      <point x="429" y="-38"/>
      <point x="408" y="-42" type="curve" smooth="yes"/>
      <point x="388" y="-46"/>
      <point x="358" y="-50"/>
      <point x="290" y="-50" type="curve" smooth="yes"/>
      <point x="208" y="-50"/>
      <point x="168" y="-35"/>
      <point x="168" y="13" type="curve" smooth="yes"/>
      <point x="168" y="32"/>
      <point x="182" y="62"/>
      <point x="260" y="102" type="curve"/>
      <point x="285" y="98"/>
      <point x="309" y="95"/>
      <point x="342" y="95" type="curve" smooth="yes"/>
      <point x="485" y="95"/>
      <point x="654" y="171"/>
      <point x="654" y="289" type="curve" smooth="yes"/>
      <point x="654" y="353"/>
      <point x="608" y="391"/>
      <point x="529" y="391" type="curve" smooth="yes"/>
      <point x="473" y="391"/>
      <point x="428" y="373"/>
      <point x="378" y="335" type="curve"/>
      <point x="347" y="359"/>
      <point x="304" y="376"/>
      <point x="263" y="376" type="curve" smooth="yes"/>
      <point x="153" y="376"/>
      <point x="83" y="306"/>
      <point x="83" y="238" type="curve" smooth="yes"/>
      <point x="83" y="189"/>
      <point x="115" y="154"/>
      <point x="147" y="139" type="curve"/>
      <point x="92" y="105"/>
      <point x="44" y="67"/>
      <point x="44" y="-7" type="curve" smooth="yes"/>
      <point x="44" y="-104"/>
      <point x="135" y="-156"/>
    </contour>
    <contour>
      <point x="233" y="194" type="curve"/>
      <point x="205" y="202"/>
      <point x="192" y="217"/>
      <point x="192" y="237" type="curve" smooth="yes"/>
      <point x="192" y="262"/>
      <point x="213" y="284"/>
      <point x="253" y="284" type="curve" smooth="yes"/>
      <point x="271" y="284"/>
      <point x="289" y="275"/>
      <point x="300" y="263" type="curve"/>
      <point x="275" y="238"/>
      <point x="242" y="202"/>
    </contour>
    <contour>
      <point x="347" y="182" type="curve"/>
      <point x="399" y="238"/>
      <point x="465" y="303"/>
      <point x="507" y="303" type="curve" smooth="yes"/>
      <point x="525" y="303"/>
      <point x="532" y="293"/>
      <point x="532" y="285" type="curve" smooth="yes"/>
      <point x="532" y="220"/>
      <point x="424" y="187"/>
    </contour>
  </outline>
</glyph>
<glyph name="uni0794" format="2">
  <advance width="735"/>
  <unicode hex="0794"/>
  <outline>
    <contour>
      <point x="18" y="-78" type="curve" smooth="yes"/>
      <point x="42" y="-78"/>
      <point x="80" y="-67"/>
      <point x="128" y="-44" type="curve" smooth="yes"/>
      <point x="236" y="9"/>
      <point x="343" y="123"/>
      <point x="418" y="216" type="curve"/>
      <point x="461" y="221"/>
      <point x="504" y="232"/>
      <point x="543" y="248" type="curve"/>
      <point x="527" y="188"/>
      <point x="491" y="151"/>
      <point x="461" y="117" type="curve" smooth="yes"/>
      <point x="449" y="103"/>
      <point x="442" y="86"/>
      <point x="442" y="65" type="curve" smooth="yes"/>
      <point x="442" y="36"/>
      <point x="466" y="17"/>
      <point x="503" y="17" type="curve" smooth="yes"/>
      <point x="532" y="17"/>
      <point x="560" y="37"/>
      <point x="586" y="75" type="curve" smooth="yes"/>
      <point x="638" y="151"/>
      <point x="672" y="235"/>
      <point x="672" y="314" type="curve" smooth="yes"/>
      <point x="672" y="387"/>
      <point x="654" y="405"/>
      <point x="627" y="405" type="curve" smooth="yes"/>
      <point x="613" y="405"/>
      <point x="595" y="401"/>
      <point x="579" y="391" type="curve" smooth="yes"/>
      <point x="523" y="358"/>
      <point x="491" y="339"/>
      <point x="450" y="334" type="curve"/>
      <point x="430" y="367"/>
      <point x="405" y="391"/>
      <point x="360" y="391" type="curve" smooth="yes"/>
      <point x="294" y="391"/>
      <point x="257" y="346"/>
      <point x="257" y="297" type="curve" smooth="yes"/>
      <point x="257" y="270"/>
      <point x="268" y="247"/>
      <point x="297" y="231" type="curve"/>
      <point x="231" y="163"/>
      <point x="167" y="116"/>
      <point x="99" y="86" type="curve" smooth="yes"/>
      <point x="68" y="72"/>
      <point x="37" y="62"/>
      <point x="3" y="54" type="curve" smooth="yes"/>
      <point x="-37" y="45"/>
      <point x="-59" y="22"/>
      <point x="-59" y="-12" type="curve" smooth="yes"/>
      <point x="-59" y="-52"/>
      <point x="-33" y="-78"/>
    </contour>
  </outline>
</glyph>
<glyph name="uni0795" format="2">
  <advance width="458"/>
  <unicode hex="0795"/>
  <outline>
    <contour>
      <point x="16" y="-79" type="curve" smooth="yes"/>
      <point x="45" y="-79"/>
      <point x="97" y="-60"/>
      <point x="155" y="-26" type="curve" smooth="yes"/>
      <point x="242" y="26"/>
      <point x="370" y="113"/>
      <point x="370" y="182" type="curve" smooth="yes"/>
      <point x="370" y="206"/>
      <point x="355" y="216"/>
      <point x="331" y="226" type="curve"/>
      <point x="338" y="228"/>
      <point x="351" y="235"/>
      <point x="372" y="248" type="curve" smooth="yes"/>
      <point x="404" y="267"/>
      <point x="429" y="292"/>
      <point x="429" y="324" type="curve" smooth="yes"/>
      <point x="429" y="353"/>
      <point x="391" y="365"/>
      <point x="349" y="376" type="curve"/>
      <point x="356" y="380"/>
      <point x="376" y="390"/>
      <point x="395" y="402" type="curve" smooth="yes"/>
      <point x="411" y="412"/>
      <point x="427" y="424"/>
      <point x="427" y="439" type="curve" smooth="yes"/>
      <point x="427" y="467"/>
      <point x="403" y="488"/>
      <point x="374" y="488" type="curve" smooth="yes"/>
      <point x="345" y="488"/>
      <point x="312" y="457"/>
      <point x="284" y="441" type="curve" smooth="yes"/>
      <point x="256" y="425"/>
      <point x="205" y="404"/>
      <point x="205" y="372" type="curve" smooth="yes"/>
      <point x="205" y="351"/>
      <point x="228" y="340"/>
      <point x="250" y="332" type="curve" smooth="yes"/>
      <point x="274" y="323"/>
      <point x="305" y="317"/>
      <point x="305" y="311" type="curve"/>
      <point x="305" y="302"/>
      <point x="280" y="298"/>
      <point x="241" y="281" type="curve" smooth="yes"/>
      <point x="194" y="260"/>
      <point x="175" y="245"/>
      <point x="175" y="225" type="curve" smooth="yes"/>
      <point x="175" y="212"/>
      <point x="184" y="201"/>
      <point x="196" y="191" type="curve" smooth="yes"/>
      <point x="207" y="182"/>
      <point x="230" y="172"/>
      <point x="251" y="169" type="curve"/>
      <point x="251" y="144"/>
      <point x="188" y="112"/>
      <point x="121" y="87" type="curve" smooth="yes"/>
      <point x="87" y="74"/>
      <point x="52" y="65"/>
      <point x="23" y="59" type="curve" smooth="yes"/>
      <point x="-31" y="47"/>
      <point x="-59" y="20"/>
      <point x="-59" y="-13" type="curve" smooth="yes"/>
      <point x="-59" y="-53"/>
      <point x="-35" y="-79"/>
    </contour>
    <contour>
      <point x="249" y="-166" type="curve" smooth="yes"/>
      <point x="284" y="-166"/>
      <point x="319" y="-138"/>
      <point x="319" y="-97" type="curve" smooth="yes"/>
      <point x="319" y="-62"/>
      <point x="292" y="-35"/>
      <point x="257" y="-35" type="curve" smooth="yes"/>
      <point x="220" y="-35"/>
      <point x="188" y="-65"/>
      <point x="188" y="-105" type="curve" smooth="yes"/>
      <point x="188" y="-140"/>
      <point x="213" y="-166"/>
    </contour>
  </outline>
</glyph>
<glyph name="uni0796" format="2">
  <advance width="594"/>
  <unicode hex="0796"/>
  <outline>
    <contour>
      <point x="278" y="-156" type="curve" smooth="yes"/>
      <point x="352" y="-156"/>
      <point x="408" y="-150"/>
      <point x="446" y="-138" type="curve" smooth="yes"/>
      <point x="487" y="-125"/>
      <point x="507" y="-104"/>
      <point x="507" y="-78" type="curve" smooth="yes"/>
      <point x="507" y="-47"/>
      <point x="480" y="-31"/>
      <point x="458" y="-31" type="curve" smooth="yes"/>
      <point x="440" y="-31"/>
      <point x="419" y="-37"/>
      <point x="403" y="-40" type="curve" smooth="yes"/>
      <point x="380" y="-44"/>
      <point x="345" y="-50"/>
      <point x="278" y="-50" type="curve" smooth="yes"/>
      <point x="194" y="-50"/>
      <point x="162" y="-32"/>
      <point x="162" y="16" type="curve" smooth="yes"/>
      <point x="162" y="44"/>
      <point x="188" y="68"/>
      <point x="207" y="81" type="curve"/>
      <point x="226" y="78"/>
      <point x="250" y="76"/>
      <point x="275" y="76" type="curve" smooth="yes"/>
      <point x="402" y="76"/>
      <point x="507" y="151"/>
      <point x="507" y="250" type="curve" smooth="yes"/>
      <point x="507" y="277"/>
      <point x="493" y="310"/>
      <point x="463" y="322" type="curve"/>
      <point x="506" y="332"/>
      <point x="530" y="355"/>
      <point x="530" y="378" type="curve" smooth="yes"/>
      <point x="530" y="406"/>
      <point x="508" y="427"/>
      <point x="476" y="427" type="curve" smooth="yes"/>
      <point x="460" y="427"/>
      <point x="452" y="416"/>
      <point x="402" y="393" type="curve" smooth="yes"/>
      <point x="364" y="376"/>
      <point x="313" y="374"/>
      <point x="313" y="329" type="curve" smooth="yes"/>
      <point x="313" y="303"/>
      <point x="323" y="296"/>
      <point x="353" y="283" type="curve" smooth="yes"/>
      <point x="376" y="273"/>
      <point x="382" y="265"/>
      <point x="382" y="248" type="curve" smooth="yes"/>
      <point x="382" y="208"/>
      <point x="337" y="186"/>
      <point x="302" y="186" type="curve" smooth="yes"/>
      <point x="288" y="186"/>
      <point x="265" y="188"/>
      <point x="254" y="190" type="curve"/>
      <point x="244" y="222"/>
      <point x="223" y="250"/>
      <point x="181" y="250" type="curve" smooth="yes"/>
      <point x="145" y="250"/>
      <point x="105" y="222"/>
      <point x="105" y="170" type="curve" smooth="yes"/>
      <point x="105" y="158"/>
      <point x="112" y="140"/>
      <point x="124" y="130" type="curve"/>
      <point x="78" y="102"/>
      <point x="40" y="49"/>
      <point x="40" y="-7" type="curve" smooth="yes"/>
      <point x="40" y="-104"/>
      <point x="121" y="-156"/>
    </contour>
  </outline>
</glyph>
<glyph name="uni0797" format="2">
  <advance width="641"/>
  <unicode hex="0797"/>
  <outline>
    <contour>
      <point x="27" y="-158" type="curve" smooth="yes"/>
      <point x="49" y="-158"/>
      <point x="79" y="-147"/>
      <point x="122" y="-121" type="curve" smooth="yes"/>
      <point x="210" y="-67"/>
      <point x="235" y="-25"/>
      <point x="235" y="21" type="curve" smooth="yes"/>
      <point x="235" y="40"/>
      <point x="223" y="62"/>
      <point x="203" y="80" type="curve" smooth="yes"/>
      <point x="189" y="92"/>
      <point x="183" y="100"/>
      <point x="183" y="103" type="curve" smooth="yes"/>
      <point x="183" y="105"/>
      <point x="199" y="122"/>
      <point x="213" y="133" type="curve"/>
      <point x="244" y="84"/>
      <point x="295" y="61"/>
      <point x="362" y="61" type="curve" smooth="yes"/>
      <point x="447" y="61"/>
      <point x="538" y="125"/>
      <point x="538" y="205" type="curve" smooth="yes"/>
      <point x="538" y="255"/>
      <point x="512" y="301"/>
      <point x="463" y="321" type="curve"/>
      <point x="510" y="350"/>
      <point x="605" y="405"/>
      <point x="642" y="434" type="curve" smooth="yes"/>
      <point x="676" y="460"/>
      <point x="685" y="474"/>
      <point x="685" y="486" type="curve" smooth="yes"/>
      <point x="685" y="512"/>
      <point x="673" y="527"/>
      <point x="644" y="527" type="curve" smooth="yes"/>
      <point x="629" y="527"/>
      <point x="614" y="525"/>
      <point x="598" y="519" type="curve" smooth="yes"/>
      <point x="544" y="500"/>
      <point x="475" y="450"/>
      <point x="343" y="359" type="curve" smooth="yes"/>
      <point x="123" y="207"/>
      <point x="62" y="131"/>
      <point x="62" y="92" type="curve" smooth="yes"/>
      <point x="62" y="80"/>
      <point x="76" y="65"/>
      <point x="93" y="47" type="curve" smooth="yes"/>
      <point x="105" y="35"/>
      <point x="112" y="26"/>
      <point x="112" y="21" type="curve" smooth="yes"/>
      <point x="112" y="-2"/>
      <point x="68" y="-15"/>
      <point x="14" y="-29" type="curve" smooth="yes"/>
      <point x="-28" y="-40"/>
      <point x="-49" y="-63"/>
      <point x="-49" y="-97" type="curve" smooth="yes"/>
      <point x="-49" y="-136"/>
      <point x="-23" y="-158"/>
    </contour>
    <contour>
      <point x="352" y="161" type="curve" smooth="yes"/>
      <point x="316" y="161"/>
      <point x="297" y="179"/>
      <point x="288" y="212" type="curve"/>
      <point x="320" y="240"/>
      <point x="348" y="253"/>
      <point x="371" y="253" type="curve" smooth="yes"/>
      <point x="401" y="253"/>
      <point x="414" y="237"/>
      <point x="414" y="215" type="curve" smooth="yes"/>
      <point x="414" y="184"/>
      <point x="386" y="161"/>
    </contour>
  </outline>
</glyph>
<glyph name="uni0798" format="2">
  <advance width="657"/>
  <unicode hex="0798"/>
  <outline>
    <contour>
      <point x="107" y="-44" type="curve" smooth="yes"/>
      <point x="209" y="-44"/>
      <point x="308" y="7"/>
      <point x="308" y="80" type="curve" smooth="yes"/>
      <point x="308" y="103"/>
      <point x="292" y="121"/>
      <point x="270" y="141" type="curve" smooth="yes"/>
      <point x="253" y="157"/>
      <point x="242" y="168"/>
      <point x="242" y="171" type="curve" smooth="yes"/>
      <point x="242" y="177"/>
      <point x="257" y="194"/>
      <point x="269" y="204" type="curve"/>
      <point x="295" y="173"/>
      <point x="360" y="145"/>
      <point x="414" y="145" type="curve" smooth="yes"/>
      <point x="502" y="145"/>
      <point x="597" y="208"/>
      <point x="597" y="305" type="curve" smooth="yes"/>
      <point x="597" y="369"/>
      <point x="549" y="405"/>
      <point x="478" y="405" type="curve" smooth="yes"/>
      <point x="367" y="405"/>
      <point x="133" y="276"/>
      <point x="133" y="163" type="curve" smooth="yes"/>
      <point x="133" y="151"/>
      <point x="140" y="136"/>
      <point x="164" y="120" type="curve" smooth="yes"/>
      <point x="178" y="110"/>
      <point x="188" y="101"/>
      <point x="188" y="94" type="curve" smooth="yes"/>
      <point x="188" y="72"/>
      <point x="164" y="61"/>
      <point x="110" y="61" type="curve" smooth="yes"/>
      <point x="94" y="61"/>
      <point x="80" y="66"/>
      <point x="64" y="70" type="curve" smooth="yes"/>
      <point x="54" y="73"/>
      <point x="43" y="75"/>
      <point x="32" y="75" type="curve" smooth="yes"/>
      <point x="-8" y="75"/>
      <point x="-24" y="54"/>
      <point x="-24" y="20" type="curve" smooth="yes"/>
      <point x="-24" y="-8"/>
      <point x="-2" y="-28"/>
      <point x="39" y="-37" type="curve" smooth="yes"/>
      <point x="58" y="-41"/>
      <point x="81" y="-44"/>
    </contour>
    <contour>
      <point x="393" y="240" type="curve" smooth="yes"/>
      <point x="372" y="240"/>
      <point x="347" y="247"/>
      <point x="325" y="263" type="curve"/>
      <point x="360" y="284"/>
      <point x="417" y="315"/>
      <point x="458" y="315" type="curve" smooth="yes"/>
      <point x="465" y="315"/>
      <point x="475" y="311"/>
      <point x="475" y="304" type="curve" smooth="yes"/>
      <point x="475" y="264"/>
      <point x="441" y="240"/>
    </contour>
    <contour>
      <point x="458" y="563" type="curve" smooth="yes"/>
      <point x="489" y="563"/>
      <point x="520" y="588"/>
      <point x="520" y="624" type="curve" smooth="yes"/>
      <point x="520" y="655"/>
      <point x="497" y="679"/>
      <point x="465" y="679" type="curve" smooth="yes"/>
      <point x="433" y="679"/>
      <point x="404" y="653"/>
      <point x="404" y="617" type="curve" smooth="yes"/>
      <point x="404" y="586"/>
      <point x="427" y="563"/>
    </contour>
    <contour>
      <point x="346" y="418" type="curve" smooth="yes"/>
      <point x="377" y="418"/>
      <point x="408" y="443"/>
      <point x="408" y="479" type="curve" smooth="yes"/>
      <point x="408" y="510"/>
      <point x="385" y="534"/>
      <point x="353" y="534" type="curve" smooth="yes"/>
      <point x="322" y="534"/>
      <point x="292" y="508"/>
      <point x="292" y="472" type="curve" smooth="yes"/>
      <point x="292" y="441"/>
      <point x="315" y="418"/>
    </contour>
    <contour>
      <point x="545" y="418" type="curve" smooth="yes"/>
      <point x="577" y="418"/>
      <point x="608" y="443"/>
      <point x="608" y="479" type="curve" smooth="yes"/>
      <point x="608" y="510"/>
      <point x="584" y="534"/>
      <point x="553" y="534" type="curve" smooth="yes"/>
      <point x="520" y="534"/>
      <point x="492" y="508"/>
      <point x="492" y="472" type="curve" smooth="yes"/>
      <point x="492" y="441"/>
      <point x="514" y="418"/>
    </contour>
  </outline>
</glyph>
<glyph name="uni0799" format="2">
  <advance width="543"/>
  <unicode hex="0799"/>
  <outline>
    <contour>
      <point x="90" y="-10" type="curve" smooth="yes"/>
      <point x="167" y="-10"/>
      <point x="253" y="56"/>
      <point x="367" y="153" type="curve" smooth="yes"/>
      <point x="439" y="215"/>
      <point x="476" y="255"/>
      <point x="495" y="282" type="curve" smooth="yes"/>
      <point x="514" y="309"/>
      <point x="514" y="323"/>
      <point x="514" y="333" type="curve" smooth="yes"/>
      <point x="514" y="359"/>
      <point x="499" y="376"/>
      <point x="468" y="376" type="curve" smooth="yes"/>
      <point x="446" y="376"/>
      <point x="417" y="364"/>
      <point x="386" y="328" type="curve" smooth="yes"/>
      <point x="361" y="298"/>
      <point x="305" y="251"/>
      <point x="272" y="228" type="curve" smooth="yes"/>
      <point x="199" y="177"/>
      <point x="139" y="136"/>
      <point x="77" y="120" type="curve" smooth="yes"/>
      <point x="36" y="109"/>
      <point x="15" y="86"/>
      <point x="15" y="50" type="curve" smooth="yes"/>
      <point x="15" y="12"/>
      <point x="42" y="-10"/>
    </contour>
    <contour>
      <point x="411" y="-15" type="curve" smooth="yes"/>
      <point x="446" y="-15"/>
      <point x="481" y="13"/>
      <point x="481" y="54" type="curve" smooth="yes"/>
      <point x="481" y="89"/>
      <point x="454" y="116"/>
      <point x="419" y="116" type="curve" smooth="yes"/>
      <point x="382" y="116"/>
      <point x="350" y="86"/>
      <point x="350" y="46" type="curve" smooth="yes"/>
      <point x="350" y="11"/>
      <point x="375" y="-15"/>
    </contour>
  </outline>
</glyph>
<glyph name="uni079A" format="2">
  <advance width="543"/>
  <unicode hex="079A"/>
  <outline>
    <contour>
      <point x="90" y="-10" type="curve" smooth="yes"/>
      <point x="167" y="-10"/>
      <point x="253" y="56"/>
      <point x="367" y="153" type="curve" smooth="yes"/>
      <point x="439" y="215"/>
      <point x="476" y="255"/>
      <point x="495" y="282" type="curve" smooth="yes"/>
      <point x="514" y="309"/>
      <point x="514" y="323"/>
      <point x="514" y="333" type="curve" smooth="yes"/>
      <point x="514" y="359"/>
      <point x="499" y="376"/>
      <point x="468" y="376" type="curve" smooth="yes"/>
      <point x="446" y="376"/>
      <point x="417" y="364"/>
      <point x="386" y="328" type="curve" smooth="yes"/>
      <point x="361" y="298"/>
      <point x="305" y="251"/>
      <point x="272" y="228" type="curve" smooth="yes"/>
      <point x="199" y="177"/>
      <point x="139" y="136"/>
      <point x="77" y="120" type="curve" smooth="yes"/>
      <point x="36" y="109"/>
      <point x="15" y="86"/>
      <point x="15" y="50" type="curve" smooth="yes"/>
      <point x="15" y="12"/>
      <point x="42" y="-10"/>
    </contour>
    <contour>
      <point x="410" y="417" type="curve" smooth="yes"/>
      <point x="445" y="417"/>
      <point x="480" y="445"/>
      <point x="480" y="484" type="curve" smooth="yes"/>
      <point x="480" y="520"/>
      <point x="453" y="548"/>
      <point x="418" y="548" type="curve" smooth="yes"/>
      <point x="381" y="548"/>
      <point x="349" y="518"/>
      <point x="349" y="478" type="curve" smooth="yes"/>
      <point x="349" y="443"/>
      <point x="374" y="417"/>
    </contour>
  </outline>
</glyph>
<glyph name="uni079F" format="2">
  <advance width="1019"/>
  <unicode hex="079F"/>
  <outline>
    <contour>
      <point x="95" y="37" type="curve" smooth="yes"/>
      <point x="124" y="37"/>
      <point x="151" y="49"/>
      <point x="191" y="84" type="curve" smooth="yes"/>
      <point x="231" y="119"/>
      <point x="249" y="143"/>
      <point x="265" y="177" type="curve"/>
      <point x="404" y="162"/>
      <point x="460" y="158"/>
      <point x="566" y="158" type="curve" smooth="yes"/>
      <point x="695" y="158"/>
      <point x="819" y="166"/>
      <point x="909" y="229" type="curve" smooth="yes"/>
      <point x="940" y="251"/>
      <point x="964" y="277"/>
      <point x="980" y="305" type="curve" smooth="yes"/>
      <point x="992" y="327"/>
      <point x="999" y="349"/>
      <point x="999" y="369" type="curve" smooth="yes"/>
      <point x="999" y="399"/>
      <point x="986" y="420"/>
      <point x="949" y="420" type="curve" smooth="yes"/>
      <point x="920" y="420"/>
      <point x="902" y="403"/>
      <point x="887" y="375" type="curve" smooth="yes"/>
      <point x="876" y="354"/>
      <point x="858" y="322"/>
      <point x="827" y="303" type="curve" smooth="yes"/>
      <point x="795" y="283"/>
      <point x="726" y="266"/>
      <point x="546" y="266" type="curve" smooth="yes"/>
      <point x="444" y="266"/>
      <point x="358" y="269"/>
      <point x="285" y="279" type="curve"/>
      <point x="285" y="326"/>
      <point x="254" y="376"/>
      <point x="196" y="376" type="curve" smooth="yes"/>
      <point x="143" y="376"/>
      <point x="103" y="328"/>
      <point x="103" y="288" type="curve" smooth="yes"/>
      <point x="103" y="257"/>
      <point x="111" y="234"/>
      <point x="162" y="206" type="curve"/>
      <point x="148" y="176"/>
      <point x="111" y="152"/>
      <point x="76" y="140" type="curve" smooth="yes"/>
      <point x="45" y="129"/>
      <point x="29" y="112"/>
      <point x="29" y="90" type="curve" smooth="yes"/>
      <point x="29" y="58"/>
      <point x="54" y="37"/>
    </contour>
    <contour>
      <point x="570" y="318" type="curve" smooth="yes"/>
      <point x="605" y="318"/>
      <point x="640" y="346"/>
      <point x="640" y="385" type="curve" smooth="yes"/>
      <point x="640" y="421"/>
      <point x="613" y="449"/>
      <point x="578" y="449" type="curve" smooth="yes"/>
      <point x="541" y="449"/>
      <point x="509" y="419"/>
      <point x="509" y="379" type="curve" smooth="yes"/>
      <point x="509" y="344"/>
      <point x="534" y="318"/>
    </contour>
  </outline>
</glyph>
<glyph name="uni07A0" format="2">
  <advance width="657"/>
  <unicode hex="07A0"/>
  <outline>
    <contour>
      <point x="107" y="-44" type="curve" smooth="yes"/>
      <point x="209" y="-44"/>
      <point x="308" y="7"/>
      <point x="308" y="80" type="curve" smooth="yes"/>
      <point x="308" y="103"/>
      <point x="292" y="121"/>
      <point x="270" y="141" type="curve" smooth="yes"/>
      <point x="253" y="157"/>
      <point x="242" y="168"/>
      <point x="242" y="171" type="curve" smooth="yes"/>
      <point x="242" y="177"/>
      <point x="257" y="194"/>
      <point x="269" y="204" type="curve"/>
      <point x="295" y="173"/>
      <point x="360" y="145"/>
      <point x="414" y="145" type="curve" smooth="yes"/>
      <point x="502" y="145"/>
      <point x="597" y="208"/>
      <point x="597" y="305" type="curve" smooth="yes"/>
      <point x="597" y="369"/>
      <point x="549" y="405"/>
      <point x="478" y="405" type="curve" smooth="yes"/>
      <point x="367" y="405"/>
      <point x="133" y="276"/>
      <point x="133" y="163" type="curve" smooth="yes"/>
      <point x="133" y="151"/>
      <point x="140" y="136"/>
      <point x="164" y="120" type="curve" smooth="yes"/>
      <point x="178" y="110"/>
      <point x="188" y="101"/>
      <point x="188" y="94" type="curve" smooth="yes"/>
      <point x="188" y="72"/>
      <point x="164" y="61"/>
      <point x="110" y="61" type="curve" smooth="yes"/>
      <point x="94" y="61"/>
      <point x="80" y="66"/>
      <point x="64" y="70" type="curve" smooth="yes"/>
      <point x="54" y="73"/>
      <point x="43" y="75"/>
      <point x="32" y="75" type="curve" smooth="yes"/>
      <point x="-8" y="75"/>
      <point x="-24" y="54"/>
      <point x="-24" y="20" type="curve" smooth="yes"/>
      <point x="-24" y="-8"/>
      <point x="-2" y="-28"/>
      <point x="39" y="-37" type="curve" smooth="yes"/>
      <point x="58" y="-41"/>
      <point x="81" y="-44"/>
    </contour>
    <contour>
      <point x="393" y="240" type="curve" smooth="yes"/>
      <point x="372" y="240"/>
      <point x="347" y="247"/>
      <point x="325" y="263" type="curve"/>
      <point x="360" y="284"/>
      <point x="417" y="315"/>
      <point x="458" y="315" type="curve" smooth="yes"/>
      <point x="465" y="315"/>
      <point x="475" y="311"/>
      <point x="475" y="304" type="curve" smooth="yes"/>
      <point x="475" y="264"/>
      <point x="441" y="240"/>
    </contour>
    <contour>
      <point x="402" y="-76" type="curve" smooth="yes"/>
      <point x="437" y="-76"/>
      <point x="472" y="-48"/>
      <point x="472" y="-7" type="curve" smooth="yes"/>
      <point x="472" y="28"/>
      <point x="445" y="55"/>
      <point x="410" y="55" type="curve" smooth="yes"/>
      <point x="373" y="55"/>
      <point x="341" y="25"/>
      <point x="341" y="-15" type="curve" smooth="yes"/>
      <point x="341" y="-50"/>
      <point x="366" y="-76"/>
    </contour>
  </outline>
</glyph>
<glyph name="uni07A1" format="2">
  <advance width="657"/>
  <unicode hex="07A1"/>
  <outline>
    <contour>
      <point x="107" y="-44" type="curve" smooth="yes"/>
      <point x="209" y="-44"/>
      <point x="308" y="7"/>
      <point x="308" y="80" type="curve" smooth="yes"/>
      <point x="308" y="103"/>
      <point x="292" y="121"/>
      <point x="270" y="141" type="curve" smooth="yes"/>
      <point x="253" y="157"/>
      <point x="242" y="168"/>
      <point x="242" y="171" type="curve" smooth="yes"/>
      <point x="242" y="177"/>
      <point x="257" y="194"/>
      <point x="269" y="204" type="curve"/>
      <point x="295" y="173"/>
      <point x="360" y="145"/>
      <point x="414" y="145" type="curve" smooth="yes"/>
      <point x="502" y="145"/>
      <point x="597" y="208"/>
      <point x="597" y="305" type="curve" smooth="yes"/>
      <point x="597" y="369"/>
      <point x="549" y="405"/>
      <point x="478" y="405" type="curve" smooth="yes"/>
      <point x="367" y="405"/>
      <point x="133" y="276"/>
      <point x="133" y="163" type="curve" smooth="yes"/>
      <point x="133" y="151"/>
      <point x="140" y="136"/>
      <point x="164" y="120" type="curve" smooth="yes"/>
      <point x="178" y="110"/>
      <point x="188" y="101"/>
      <point x="188" y="94" type="curve" smooth="yes"/>
      <point x="188" y="72"/>
      <point x="164" y="61"/>
      <point x="110" y="61" type="curve" smooth="yes"/>
      <point x="94" y="61"/>
      <point x="80" y="66"/>
      <point x="64" y="70" type="curve" smooth="yes"/>
      <point x="54" y="73"/>
      <point x="43" y="75"/>
      <point x="32" y="75" type="curve" smooth="yes"/>
      <point x="-8" y="75"/>
      <point x="-24" y="54"/>
      <point x="-24" y="20" type="curve" smooth="yes"/>
      <point x="-24" y="-8"/>
      <point x="-2" y="-28"/>
      <point x="39" y="-37" type="curve" smooth="yes"/>
      <point x="58" y="-41"/>
      <point x="81" y="-44"/>
    </contour>
    <contour>
      <point x="393" y="240" type="curve" smooth="yes"/>
      <point x="372" y="240"/>
      <point x="347" y="247"/>
      <point x="325" y="263" type="curve"/>
      <point x="360" y="284"/>
      <point x="417" y="315"/>
      <point x="458" y="315" type="curve" smooth="yes"/>
      <point x="465" y="315"/>
      <point x="475" y="311"/>
      <point x="475" y="304" type="curve" smooth="yes"/>
      <point x="475" y="264"/>
      <point x="441" y="240"/>
    </contour>
    <contour>
      <point x="475" y="415" type="curve" smooth="yes"/>
      <point x="510" y="415"/>
      <point x="545" y="443"/>
      <point x="545" y="482" type="curve" smooth="yes"/>
      <point x="545" y="518"/>
      <point x="518" y="546"/>
      <point x="483" y="546" type="curve" smooth="yes"/>
      <point x="446" y="546"/>
      <point x="414" y="516"/>
      <point x="414" y="476" type="curve" smooth="yes"/>
      <point x="414" y="441"/>
      <point x="439" y="415"/>
    </contour>
  </outline>
</glyph>
<glyph name="uni07A2" format="2">
  <advance width="544"/>
  <unicode hex="07A2"/>
  <outline>
    <contour>
      <point x="11" y="-10" type="curve" smooth="yes"/>
      <point x="49" y="-10"/>
      <point x="99" y="20"/>
      <point x="180" y="74" type="curve" smooth="yes"/>
      <point x="230" y="108"/>
      <point x="336" y="203"/>
      <point x="362" y="237" type="curve"/>
      <point x="362" y="205"/>
      <point x="344" y="169"/>
      <point x="320" y="130" type="curve" smooth="yes"/>
      <point x="300" y="98"/>
      <point x="281" y="73"/>
      <point x="281" y="48" type="curve" smooth="yes"/>
      <point x="281" y="19"/>
      <point x="305" y="0"/>
      <point x="342" y="0" type="curve" smooth="yes"/>
      <point x="371" y="0"/>
      <point x="398" y="20"/>
      <point x="430" y="73" type="curve" smooth="yes"/>
      <point x="466" y="132"/>
      <point x="486" y="194"/>
      <point x="486" y="270" type="curve" smooth="yes"/>
      <point x="486" y="344"/>
      <point x="458" y="376"/>
      <point x="405" y="376" type="curve" smooth="yes"/>
      <point x="370" y="376"/>
      <point x="331" y="353"/>
      <point x="288" y="306" type="curve" smooth="yes"/>
      <point x="248" y="262"/>
      <point x="193" y="217"/>
      <point x="134" y="180" type="curve" smooth="yes"/>
      <point x="89" y="152"/>
      <point x="41" y="130"/>
      <point x="-3" y="117" type="curve" smooth="yes"/>
      <point x="-39" y="106"/>
      <point x="-59" y="83"/>
      <point x="-59" y="50" type="curve" smooth="yes"/>
      <point x="-59" y="11"/>
      <point x="-35" y="-10"/>
    </contour>
    <contour>
      <point x="190" y="-117" type="curve" smooth="yes"/>
      <point x="225" y="-117"/>
      <point x="260" y="-89"/>
      <point x="260" y="-48" type="curve" smooth="yes"/>
      <point x="260" y="-13"/>
      <point x="233" y="14"/>
      <point x="198" y="14" type="curve" smooth="yes"/>
      <point x="161" y="14"/>
      <point x="129" y="-16"/>
      <point x="129" y="-56" type="curve" smooth="yes"/>
      <point x="129" y="-91"/>
      <point x="154" y="-117"/>
    </contour>
  </outline>
</glyph>
<glyph name="uni07A6" format="2">
  <unicode hex="07A6"/>
  <outline>
    <contour>
      <point x="55" y="437" type="curve" smooth="yes"/>
      <point x="73" y="437"/>
      <point x="94" y="441"/>
      <point x="126" y="454" type="curve" smooth="yes"/>
      <point x="173" y="473"/>
      <point x="297" y="538"/>
      <point x="327" y="565" type="curve" smooth="yes"/>
      <point x="351" y="586"/>
      <point x="358" y="607"/>
      <point x="358" y="627" type="curve" smooth="yes"/>
      <point x="358" y="651"/>
      <point x="342" y="667"/>
      <point x="318" y="667" type="curve" smooth="yes"/>
      <point x="298" y="667"/>
      <point x="278" y="660"/>
      <point x="259" y="646" type="curve" smooth="yes"/>
      <point x="200" y="602"/>
      <point x="135" y="558"/>
      <point x="59" y="539" type="curve" smooth="yes"/>
      <point x="20" y="529"/>
      <point x="0" y="510"/>
      <point x="0" y="482" type="curve" smooth="yes"/>
      <point x="0" y="453"/>
      <point x="23" y="437"/>
    </contour>
  </outline>
</glyph>
<glyph name="uni07A7" format="2">
  <unicode hex="07A7"/>
  <outline>
    <contour>
      <point x="50" y="565" type="curve" smooth="yes"/>
      <point x="68" y="565"/>
      <point x="89" y="569"/>
      <point x="121" y="582" type="curve" smooth="yes"/>
      <point x="163" y="599"/>
      <point x="272" y="656"/>
      <point x="302" y="683" type="curve" smooth="yes"/>
      <point x="326" y="704"/>
      <point x="333" y="725"/>
      <point x="333" y="745" type="curve" smooth="yes"/>
      <point x="333" y="769"/>
      <point x="317" y="785"/>
      <point x="293" y="785" type="curve" smooth="yes"/>
      <point x="272" y="785"/>
      <point x="254" y="777"/>
      <point x="234" y="764" type="curve" smooth="yes"/>
      <point x="178" y="728"/>
      <point x="122" y="684"/>
      <point x="54" y="667" type="curve" smooth="yes"/>
      <point x="15" y="657"/>
      <point x="-5" y="638"/>
      <point x="-5" y="610" type="curve" smooth="yes"/>
      <point x="-5" y="581"/>
      <point x="18" y="565"/>
    </contour>
    <contour>
      <point x="109" y="437" type="curve" smooth="yes"/>
      <point x="127" y="437"/>
      <point x="148" y="441"/>
      <point x="180" y="454" type="curve" smooth="yes"/>
      <point x="222" y="471"/>
      <point x="331" y="528"/>
      <point x="361" y="555" type="curve" smooth="yes"/>
      <point x="385" y="576"/>
      <point x="392" y="597"/>
      <point x="392" y="617" type="curve" smooth="yes"/>
      <point x="392" y="641"/>
      <point x="376" y="657"/>
      <point x="352" y="657" type="curve" smooth="yes"/>
      <point x="331" y="657"/>
      <point x="313" y="649"/>
      <point x="293" y="636" type="curve" smooth="yes"/>
      <point x="239" y="600"/>
      <point x="181" y="557"/>
      <point x="113" y="539" type="curve" smooth="yes"/>
      <point x="74" y="529"/>
      <point x="54" y="510"/>
      <point x="54" y="482" type="curve" smooth="yes"/>
      <point x="54" y="453"/>
      <point x="77" y="437"/>
    </contour>
  </outline>
</glyph>
<glyph name="uni07A8" format="2">
  <unicode hex="07A8"/>
  <outline>
    <contour>
      <point x="-16" y="-293" type="curve" smooth="yes"/>
      <point x="2" y="-293"/>
      <point x="23" y="-289"/>
      <point x="55" y="-276" type="curve" smooth="yes"/>
      <point x="102" y="-257"/>
      <point x="226" y="-192"/>
      <point x="256" y="-165" type="curve" smooth="yes"/>
      <point x="280" y="-144"/>
      <point x="287" y="-123"/>
      <point x="287" y="-103" type="curve" smooth="yes"/>
      <point x="287" y="-79"/>
      <point x="271" y="-63"/>
      <point x="247" y="-63" type="curve" smooth="yes"/>
      <point x="226" y="-63"/>
      <point x="208" y="-71"/>
      <point x="188" y="-84" type="curve" smooth="yes"/>
      <point x="126" y="-124"/>
      <point x="64" y="-172"/>
      <point x="-12" y="-191" type="curve" smooth="yes"/>
      <point x="-51" y="-201"/>
      <point x="-71" y="-220"/>
      <point x="-71" y="-248" type="curve" smooth="yes"/>
      <point x="-71" y="-277"/>
      <point x="-48" y="-293"/>
    </contour>
  </outline>
</glyph>
<glyph name="uni07A9" format="2">
  <unicode hex="07A9"/>
  <outline>
    <contour>
      <point x="50" y="-285" type="curve" smooth="yes"/>
      <point x="68" y="-285"/>
      <point x="89" y="-281"/>
      <point x="121" y="-268" type="curve" smooth="yes"/>
      <point x="163" y="-251"/>
      <point x="272" y="-194"/>
      <point x="302" y="-167" type="curve" smooth="yes"/>
      <point x="326" y="-146"/>
      <point x="333" y="-125"/>
      <point x="333" y="-105" type="curve" smooth="yes"/>
      <point x="333" y="-81"/>
      <point x="317" y="-65"/>
      <point x="293" y="-65" type="curve" smooth="yes"/>
      <point x="272" y="-65"/>
      <point x="254" y="-73"/>
      <point x="234" y="-86" type="curve" smooth="yes"/>
      <point x="178" y="-122"/>
      <point x="122" y="-166"/>
      <point x="54" y="-183" type="curve" smooth="yes"/>
      <point x="15" y="-193"/>
      <point x="-5" y="-212"/>
      <point x="-5" y="-240" type="curve" smooth="yes"/>
      <point x="-5" y="-269"/>
      <point x="18" y="-285"/>
    </contour>
    <contour>
      <point x="109" y="-413" type="curve" smooth="yes"/>
      <point x="127" y="-413"/>
      <point x="148" y="-409"/>
      <point x="180" y="-396" type="curve" smooth="yes"/>
      <point x="222" y="-379"/>
      <point x="331" y="-322"/>
      <point x="361" y="-295" type="curve" smooth="yes"/>
      <point x="385" y="-274"/>
      <point x="392" y="-253"/>
      <point x="392" y="-233" type="curve" smooth="yes"/>
      <point x="392" y="-209"/>
      <point x="376" y="-193"/>
      <point x="352" y="-193" type="curve" smooth="yes"/>
      <point x="331" y="-193"/>
      <point x="313" y="-201"/>
      <point x="293" y="-214" type="curve" smooth="yes"/>
      <point x="237" y="-250"/>
      <point x="181" y="-294"/>
      <point x="113" y="-311" type="curve" smooth="yes"/>
      <point x="74" y="-321"/>
      <point x="54" y="-340"/>
      <point x="54" y="-368" type="curve" smooth="yes"/>
      <point x="54" y="-397"/>
      <point x="77" y="-413"/>
    </contour>
  </outline>
</glyph>
<glyph name="uni07AA" format="2">
  <unicode hex="07AA"/>
  <outline>
    <contour>
      <point x="64" y="439" type="curve" smooth="yes"/>
      <point x="96" y="439"/>
      <point x="145" y="450"/>
      <point x="214" y="493" type="curve" smooth="yes"/>
      <point x="284" y="537"/>
      <point x="318" y="578"/>
      <point x="318" y="625" type="curve" smooth="yes"/>
      <point x="318" y="671"/>
      <point x="235" y="703"/>
      <point x="145" y="703" type="curve" smooth="yes"/>
      <point x="77" y="703"/>
      <point x="38" y="685"/>
      <point x="38" y="648" type="curve" smooth="yes"/>
      <point x="38" y="613"/>
      <point x="59" y="601"/>
      <point x="102" y="601" type="curve" smooth="yes"/>
      <point x="117" y="601"/>
      <point x="134" y="602"/>
      <point x="153" y="602" type="curve" smooth="yes"/>
      <point x="167" y="602"/>
      <point x="184" y="599"/>
      <point x="202" y="595" type="curve"/>
      <point x="167" y="573"/>
      <point x="78" y="543"/>
      <point x="43" y="532" type="curve" smooth="yes"/>
      <point x="15" y="523"/>
      <point x="0" y="515"/>
      <point x="0" y="488" type="curve" smooth="yes"/>
      <point x="0" y="456"/>
      <point x="22" y="439"/>
    </contour>
  </outline>
</glyph>
<glyph name="uni07AB" format="2">
  <unicode hex="07AB"/>
  <outline>
    <contour>
      <point x="357" y="439" type="curve" smooth="yes"/>
      <point x="389" y="439"/>
      <point x="439" y="451"/>
      <point x="507" y="493" type="curve" smooth="yes"/>
      <point x="577" y="536"/>
      <point x="611" y="578"/>
      <point x="611" y="625" type="curve" smooth="yes"/>
      <point x="611" y="671"/>
      <point x="528" y="703"/>
      <point x="438" y="703" type="curve" smooth="yes"/>
      <point x="370" y="703"/>
      <point x="331" y="685"/>
      <point x="331" y="648" type="curve" smooth="yes"/>
      <point x="331" y="613"/>
      <point x="352" y="601"/>
      <point x="395" y="601" type="curve" smooth="yes"/>
      <point x="411" y="601"/>
      <point x="427" y="602"/>
      <point x="446" y="602" type="curve" smooth="yes"/>
      <point x="454" y="602"/>
      <point x="467" y="601"/>
      <point x="495" y="595" type="curve"/>
      <point x="459" y="573"/>
      <point x="372" y="544"/>
      <point x="336" y="532" type="curve" smooth="yes"/>
      <point x="308" y="523"/>
      <point x="293" y="515"/>
      <point x="293" y="488" type="curve" smooth="yes"/>
      <point x="293" y="456"/>
      <point x="315" y="439"/>
    </contour>
    <contour>
      <point x="64" y="439" type="curve" smooth="yes"/>
      <point x="96" y="439"/>
      <point x="146" y="450"/>
      <point x="214" y="493" type="curve" smooth="yes"/>
      <point x="283" y="537"/>
      <point x="318" y="578"/>
      <point x="318" y="625" type="curve" smooth="yes"/>
      <point x="318" y="671"/>
      <point x="235" y="703"/>
      <point x="145" y="703" type="curve" smooth="yes"/>
      <point x="77" y="703"/>
      <point x="38" y="685"/>
      <point x="38" y="648" type="curve" smooth="yes"/>
      <point x="38" y="613"/>
      <point x="59" y="601"/>
      <point x="102" y="601" type="curve" smooth="yes"/>
      <point x="118" y="601"/>
      <point x="134" y="602"/>
      <point x="153" y="602" type="curve" smooth="yes"/>
      <point x="161" y="602"/>
      <point x="174" y="601"/>
      <point x="202" y="595" type="curve"/>
      <point x="167" y="573"/>
      <point x="79" y="543"/>
      <point x="43" y="532" type="curve" smooth="yes"/>
      <point x="15" y="523"/>
      <point x="0" y="515"/>
      <point x="0" y="488" type="curve" smooth="yes"/>
      <point x="0" y="456"/>
      <point x="22" y="439"/>
    </contour>
  </outline>
</glyph>
<glyph name="uni07AC" format="2">
  <unicode hex="07AC"/>
  <outline>
    <contour>
      <point x="159" y="439" type="curve" smooth="yes"/>
      <point x="231" y="439"/>
      <point x="273" y="450"/>
      <point x="273" y="488" type="curve" smooth="yes"/>
      <point x="273" y="533"/>
      <point x="256" y="541"/>
      <point x="225" y="541" type="curve" smooth="yes"/>
      <point x="207" y="541"/>
      <point x="182" y="537"/>
      <point x="171" y="537" type="curve" smooth="yes"/>
      <point x="150" y="537"/>
      <point x="139" y="539"/>
      <point x="124" y="549" type="curve"/>
      <point x="138" y="562"/>
      <point x="212" y="604"/>
      <point x="225" y="613" type="curve" smooth="yes"/>
      <point x="252" y="633"/>
      <point x="256" y="644"/>
      <point x="256" y="656" type="curve" smooth="yes"/>
      <point x="256" y="688"/>
      <point x="235" y="703"/>
      <point x="207" y="703" type="curve" smooth="yes"/>
      <point x="176" y="703"/>
      <point x="141" y="687"/>
      <point x="102" y="658" type="curve" smooth="yes"/>
      <point x="24" y="601"/>
      <point x="0" y="590"/>
      <point x="0" y="544" type="curve" smooth="yes"/>
      <point x="0" y="488"/>
      <point x="71" y="439"/>
    </contour>
  </outline>
</glyph>
<glyph name="uni07AD" format="2">
  <unicode hex="07AD"/>
  <outline>
    <contour>
      <point x="452" y="439" type="curve" smooth="yes"/>
      <point x="524" y="439"/>
      <point x="566" y="450"/>
      <point x="566" y="488" type="curve" smooth="yes"/>
      <point x="566" y="533"/>
      <point x="549" y="541"/>
      <point x="518" y="541" type="curve" smooth="yes"/>
      <point x="500" y="541"/>
      <point x="475" y="537"/>
      <point x="464" y="537" type="curve" smooth="yes"/>
      <point x="443" y="537"/>
      <point x="432" y="539"/>
      <point x="417" y="549" type="curve"/>
      <point x="431" y="562"/>
      <point x="505" y="603"/>
      <point x="518" y="613" type="curve" smooth="yes"/>
      <point x="544" y="633"/>
      <point x="549" y="644"/>
      <point x="549" y="656" type="curve" smooth="yes"/>
      <point x="549" y="688"/>
      <point x="528" y="703"/>
      <point x="500" y="703" type="curve" smooth="yes"/>
      <point x="469" y="703"/>
      <point x="434" y="687"/>
      <point x="395" y="658" type="curve" smooth="yes"/>
      <point x="317" y="601"/>
      <point x="293" y="590"/>
      <point x="293" y="544" type="curve" smooth="yes"/>
      <point x="293" y="488"/>
      <point x="364" y="439"/>
    </contour>
    <contour>
      <point x="159" y="439" type="curve" smooth="yes"/>
      <point x="231" y="439"/>
      <point x="273" y="450"/>
      <point x="273" y="488" type="curve" smooth="yes"/>
      <point x="273" y="533"/>
      <point x="256" y="541"/>
      <point x="225" y="541" type="curve" smooth="yes"/>
      <point x="207" y="541"/>
      <point x="182" y="537"/>
      <point x="171" y="537" type="curve" smooth="yes"/>
      <point x="150" y="537"/>
      <point x="139" y="539"/>
      <point x="124" y="549" type="curve"/>
      <point x="138" y="562"/>
      <point x="212" y="604"/>
      <point x="225" y="613" type="curve" smooth="yes"/>
      <point x="251" y="632"/>
      <point x="256" y="644"/>
      <point x="256" y="656" type="curve" smooth="yes"/>
      <point x="256" y="688"/>
      <point x="235" y="703"/>
      <point x="207" y="703" type="curve" smooth="yes"/>
      <point x="176" y="703"/>
      <point x="141" y="687"/>
      <point x="102" y="658" type="curve" smooth="yes"/>
      <point x="24" y="601"/>
      <point x="0" y="590"/>
      <point x="0" y="544" type="curve" smooth="yes"/>
      <point x="0" y="488"/>
      <point x="71" y="439"/>
    </contour>
  </outline>
</glyph>
<glyph name="uni07AE" format="2">
  <unicode hex="07AE"/>
  <outline>
    <contour>
      <point x="64" y="439" type="curve" smooth="yes"/>
      <point x="107" y="439"/>
      <point x="158" y="459"/>
      <point x="223" y="499" type="curve"/>
      <point x="249" y="464"/>
      <point x="303" y="439"/>
      <point x="366" y="439" type="curve" smooth="yes"/>
      <point x="438" y="439"/>
      <point x="479" y="450"/>
      <point x="479" y="488" type="curve" smooth="yes"/>
      <point x="479" y="533"/>
      <point x="463" y="541"/>
      <point x="431" y="541" type="curve" smooth="yes"/>
      <point x="414" y="541"/>
      <point x="388" y="537"/>
      <point x="378" y="537" type="curve" smooth="yes"/>
      <point x="356" y="537"/>
      <point x="345" y="539"/>
      <point x="330" y="549" type="curve"/>
      <point x="344" y="562"/>
      <point x="418" y="604"/>
      <point x="431" y="613" type="curve" smooth="yes"/>
      <point x="458" y="633"/>
      <point x="463" y="644"/>
      <point x="463" y="656" type="curve" smooth="yes"/>
      <point x="463" y="688"/>
      <point x="442" y="703"/>
      <point x="414" y="703" type="curve" smooth="yes"/>
      <point x="382" y="703"/>
      <point x="349" y="688"/>
      <point x="305" y="655" type="curve"/>
      <point x="278" y="684"/>
      <point x="214" y="703"/>
      <point x="145" y="703" type="curve" smooth="yes"/>
      <point x="77" y="703"/>
      <point x="38" y="685"/>
      <point x="38" y="648" type="curve" smooth="yes"/>
      <point x="38" y="613"/>
      <point x="59" y="601"/>
      <point x="102" y="601" type="curve" smooth="yes"/>
      <point x="118" y="601"/>
      <point x="134" y="602"/>
      <point x="153" y="602" type="curve" smooth="yes"/>
      <point x="161" y="602"/>
      <point x="174" y="601"/>
      <point x="202" y="595" type="curve"/>
      <point x="167" y="573"/>
      <point x="78" y="543"/>
      <point x="43" y="532" type="curve" smooth="yes"/>
      <point x="15" y="523"/>
      <point x="0" y="515"/>
      <point x="0" y="488" type="curve" smooth="yes"/>
      <point x="0" y="456"/>
      <point x="22" y="439"/>
    </contour>
  </outline>
</glyph>
<glyph name="uni07AF" format="2">
  <unicode hex="07AF"/>
  <outline>
    <contour>
      <point x="149" y="439" type="curve" smooth="yes"/>
      <point x="236" y="439"/>
      <point x="312" y="478"/>
      <point x="312" y="526" type="curve" smooth="yes"/>
      <point x="312" y="551"/>
      <point x="296" y="565"/>
      <point x="272" y="565" type="curve" smooth="yes"/>
      <point x="243" y="565"/>
      <point x="191" y="537"/>
      <point x="153" y="537" type="curve" smooth="yes"/>
      <point x="125" y="537"/>
      <point x="110" y="551"/>
      <point x="110" y="582" type="curve" smooth="yes"/>
      <point x="110" y="643"/>
      <point x="263" y="750"/>
      <point x="317" y="750" type="curve" smooth="yes"/>
      <point x="328" y="750"/>
      <point x="333" y="744"/>
      <point x="333" y="738" type="curve" smooth="yes"/>
      <point x="333" y="722"/>
      <point x="320" y="711"/>
      <point x="305" y="701" type="curve" smooth="yes"/>
      <point x="290" y="691"/>
      <point x="276" y="677"/>
      <point x="276" y="656" type="curve" smooth="yes"/>
      <point x="276" y="628"/>
      <point x="299" y="605"/>
      <point x="327" y="605" type="curve" smooth="yes"/>
      <point x="345" y="605"/>
      <point x="361" y="616"/>
      <point x="396" y="650" type="curve" smooth="yes"/>
      <point x="431" y="684"/>
      <point x="447" y="718"/>
      <point x="447" y="759" type="curve" smooth="yes"/>
      <point x="447" y="816"/>
      <point x="397" y="851"/>
      <point x="335" y="851" type="curve" smooth="yes"/>
      <point x="184" y="851"/>
      <point x="0" y="698"/>
      <point x="0" y="566" type="curve" smooth="yes"/>
      <point x="0" y="485"/>
      <point x="62" y="439"/>
    </contour>
  </outline>
</glyph>
<glyph name="uni07B0" format="2">
  <unicode hex="07B0"/>
  <outline>
    <contour>
      <point x="134" y="439" type="curve" smooth="yes"/>
      <point x="233" y="439"/>
      <point x="327" y="522"/>
      <point x="327" y="626" type="curve" smooth="yes"/>
      <point x="327" y="696"/>
      <point x="288" y="731"/>
      <point x="209" y="731" type="curve" smooth="yes"/>
      <point x="103" y="731"/>
      <point x="0" y="657"/>
      <point x="0" y="561" type="curve" smooth="yes"/>
      <point x="0" y="489"/>
      <point x="40" y="439"/>
    </contour>
    <contour>
      <point x="149" y="532" type="curve" smooth="yes"/>
      <point x="121" y="532"/>
      <point x="103" y="541"/>
      <point x="103" y="566" type="curve" smooth="yes"/>
      <point x="103" y="611"/>
      <point x="142" y="643"/>
      <point x="199" y="643" type="curve" smooth="yes"/>
      <point x="220" y="643"/>
      <point x="229" y="627"/>
      <point x="229" y="611" type="curve" smooth="yes"/>
      <point x="229" y="565"/>
      <point x="187" y="532"/>
    </contour>
  </outline>
</glyph>
<glyph name="uni07B1" format="2">
  <advance width="531"/>
  <unicode hex="07B1"/>
  <outline>
    <contour>
      <point x="238" y="-176" type="curve" smooth="yes"/>
      <point x="305" y="-176"/>
      <point x="364" y="-160"/>
      <point x="403" y="-135" type="curve" smooth="yes"/>
      <point x="432" y="-116"/>
      <point x="450" y="-94"/>
      <point x="450" y="-71" type="curve" smooth="yes"/>
      <point x="450" y="-41"/>
      <point x="431" y="-24"/>
      <point x="399" y="-24" type="curve" smooth="yes"/>
      <point x="385" y="-24"/>
      <point x="369" y="-30"/>
      <point x="354" y="-41" type="curve" smooth="yes"/>
      <point x="326" y="-61"/>
      <point x="293" y="-78"/>
      <point x="243" y="-78" type="curve" smooth="yes"/>
      <point x="180" y="-78"/>
      <point x="147" y="-66"/>
      <point x="147" y="-33" type="curve" smooth="yes"/>
      <point x="147" y="-12"/>
      <point x="180" y="16"/>
      <point x="246" y="51" type="curve" smooth="yes"/>
      <point x="399" y="132"/>
      <point x="470" y="194"/>
      <point x="470" y="279" type="curve" smooth="yes"/>
      <point x="470" y="350"/>
      <point x="403" y="405"/>
      <point x="311" y="405" type="curve" smooth="yes"/>
      <point x="203" y="405"/>
      <point x="112" y="335"/>
      <point x="112" y="256" type="curve" smooth="yes"/>
      <point x="112" y="198"/>
      <point x="146" y="159"/>
      <point x="221" y="138" type="curve"/>
      <point x="191" y="120"/>
      <point x="162" y="103"/>
      <point x="132" y="85" type="curve" smooth="yes"/>
      <point x="59" y="42"/>
      <point x="30" y="7"/>
      <point x="30" y="-38" type="curve" smooth="yes"/>
      <point x="30" y="-122"/>
      <point x="113" y="-176"/>
    </contour>
    <contour>
      <point x="330" y="218" type="curve"/>
      <point x="265" y="220"/>
      <point x="233" y="233"/>
      <point x="233" y="255" type="curve" smooth="yes"/>
      <point x="233" y="286"/>
      <point x="279" y="305"/>
      <point x="307" y="305" type="curve" smooth="yes"/>
      <point x="334" y="305"/>
      <point x="348" y="290"/>
      <point x="348" y="275" type="curve" smooth="yes"/>
      <point x="348" y="249"/>
      <point x="344" y="233"/>
    </contour>
  </outline>
</glyph>
<glyph name="quoteleft" format="2">
  <advance width="359"/>
  <unicode hex="2018"/>
  <outline>
    <contour>
      <point x="126" y="505" type="curve" smooth="yes"/>
      <point x="175" y="505"/>
      <point x="224" y="539"/>
      <point x="224" y="591" type="curve" smooth="yes"/>
      <point x="224" y="623"/>
      <point x="204" y="650"/>
      <point x="172" y="658" type="curve"/>
      <point x="179" y="671"/>
      <point x="189" y="683"/>
      <point x="231" y="727" type="curve" smooth="yes"/>
      <point x="238" y="734"/>
      <point x="241" y="743"/>
      <point x="241" y="752" type="curve" smooth="yes"/>
      <point x="241" y="768"/>
      <point x="229" y="784"/>
      <point x="207" y="784" type="curve" smooth="yes"/>
      <point x="191" y="784"/>
      <point x="170" y="771"/>
      <point x="146" y="746" type="curve" smooth="yes"/>
      <point x="111" y="710"/>
      <point x="52" y="632"/>
      <point x="52" y="577" type="curve" smooth="yes"/>
      <point x="52" y="528"/>
      <point x="82" y="505"/>
    </contour>
  </outline>
</glyph>
<glyph name="quoteright" format="2">
  <advance width="359"/>
  <unicode hex="2019"/>
  <outline>
    <contour>
      <point x="159" y="505" type="curve" smooth="yes"/>
      <point x="175" y="505"/>
      <point x="196" y="518"/>
      <point x="221" y="543" type="curve" smooth="yes"/>
      <point x="255" y="578"/>
      <point x="314" y="657"/>
      <point x="314" y="711" type="curve" smooth="yes"/>
      <point x="314" y="760"/>
      <point x="284" y="784"/>
      <point x="240" y="784" type="curve" smooth="yes"/>
      <point x="191" y="784"/>
      <point x="143" y="750"/>
      <point x="143" y="698" type="curve" smooth="yes"/>
      <point x="143" y="666"/>
      <point x="163" y="639"/>
      <point x="194" y="631" type="curve"/>
      <point x="187" y="617"/>
      <point x="177" y="606"/>
      <point x="135" y="562" type="curve" smooth="yes"/>
      <point x="128" y="554"/>
      <point x="125" y="546"/>
      <point x="125" y="536" type="curve" smooth="yes"/>
      <point x="125" y="521"/>
      <point x="137" y="505"/>
    </contour>
  </outline>
</glyph>
<glyph name="quotedblleft" format="2">
  <advance width="589"/>
  <unicode hex="201C"/>
  <outline>
    <contour>
      <point x="361" y="505" type="curve" smooth="yes"/>
      <point x="409" y="505"/>
      <point x="458" y="539"/>
      <point x="458" y="591" type="curve" smooth="yes"/>
      <point x="458" y="623"/>
      <point x="438" y="650"/>
      <point x="406" y="658" type="curve"/>
      <point x="414" y="671"/>
      <point x="423" y="683"/>
      <point x="466" y="727" type="curve" smooth="yes"/>
      <point x="473" y="734"/>
      <point x="476" y="743"/>
      <point x="476" y="752" type="curve" smooth="yes"/>
      <point x="476" y="768"/>
      <point x="463" y="784"/>
      <point x="441" y="784" type="curve" smooth="yes"/>
      <point x="425" y="784"/>
      <point x="404" y="771"/>
      <point x="380" y="746" type="curve" smooth="yes"/>
      <point x="345" y="710"/>
      <point x="286" y="632"/>
      <point x="286" y="577" type="curve" smooth="yes"/>
      <point x="286" y="528"/>
      <point x="316" y="505"/>
    </contour>
    <contour>
      <point x="122" y="505" type="curve" smooth="yes"/>
      <point x="170" y="505"/>
      <point x="219" y="539"/>
      <point x="219" y="591" type="curve" smooth="yes"/>
      <point x="219" y="623"/>
      <point x="199" y="650"/>
      <point x="167" y="658" type="curve"/>
      <point x="174" y="671"/>
      <point x="184" y="683"/>
      <point x="227" y="727" type="curve" smooth="yes"/>
      <point x="233" y="734"/>
      <point x="236" y="743"/>
      <point x="236" y="752" type="curve" smooth="yes"/>
      <point x="236" y="768"/>
      <point x="224" y="784"/>
      <point x="202" y="784" type="curve" smooth="yes"/>
      <point x="186" y="784"/>
      <point x="165" y="771"/>
      <point x="141" y="746" type="curve" smooth="yes"/>
      <point x="106" y="710"/>
      <point x="47" y="632"/>
      <point x="47" y="577" type="curve" smooth="yes"/>
      <point x="47" y="528"/>
      <point x="77" y="505"/>
    </contour>
  </outline>
</glyph>
<glyph name="quotedblright" format="2">
  <advance width="589"/>
  <unicode hex="201D"/>
  <outline>
    <contour>
      <point x="398" y="505" type="curve" smooth="yes"/>
      <point x="415" y="505"/>
      <point x="435" y="518"/>
      <point x="460" y="543" type="curve" smooth="yes"/>
      <point x="496" y="579"/>
      <point x="554" y="657"/>
      <point x="554" y="711" type="curve" smooth="yes"/>
      <point x="554" y="760"/>
      <point x="523" y="784"/>
      <point x="479" y="784" type="curve" smooth="yes"/>
      <point x="431" y="784"/>
      <point x="382" y="750"/>
      <point x="382" y="698" type="curve" smooth="yes"/>
      <point x="382" y="666"/>
      <point x="402" y="639"/>
      <point x="434" y="631" type="curve"/>
      <point x="426" y="617"/>
      <point x="417" y="606"/>
      <point x="374" y="562" type="curve" smooth="yes"/>
      <point x="367" y="554"/>
      <point x="364" y="546"/>
      <point x="364" y="536" type="curve" smooth="yes"/>
      <point x="364" y="521"/>
      <point x="376" y="505"/>
    </contour>
    <contour>
      <point x="159" y="505" type="curve" smooth="yes"/>
      <point x="175" y="505"/>
      <point x="196" y="518"/>
      <point x="221" y="543" type="curve" smooth="yes"/>
      <point x="255" y="578"/>
      <point x="314" y="657"/>
      <point x="314" y="711" type="curve" smooth="yes"/>
      <point x="314" y="760"/>
      <point x="284" y="784"/>
      <point x="240" y="784" type="curve" smooth="yes"/>
      <point x="191" y="784"/>
      <point x="143" y="750"/>
      <point x="143" y="698" type="curve" smooth="yes"/>
      <point x="143" y="666"/>
      <point x="163" y="639"/>
      <point x="194" y="631" type="curve"/>
      <point x="187" y="617"/>
      <point x="177" y="606"/>
      <point x="135" y="562" type="curve" smooth="yes"/>
      <point x="128" y="554"/>
      <point x="125" y="546"/>
      <point x="125" y="536" type="curve" smooth="yes"/>
      <point x="125" y="521"/>
      <point x="137" y="505"/>
    </contour>
  </outline>
</glyph>
<glyph name="uniFDF2" format="2">
  <advance width="1182"/>
  <unicode hex="FDF2"/>
  <outline>
    <contour>
      <point x="466" y="0" type="curve" smooth="yes"/>
      <point x="514" y="0"/>
      <point x="540" y="7"/>
      <point x="597" y="35" type="curve"/>
      <point x="621" y="13"/>
      <point x="658" y="0"/>
      <point x="708" y="0" type="curve" smooth="yes"/>
      <point x="770" y="0"/>
      <point x="815" y="9"/>
      <point x="830" y="31" type="curve" smooth="yes"/>
      <point x="854" y="67"/>
      <point x="868" y="112"/>
      <point x="868" y="158" type="curve" smooth="yes"/>
      <point x="868" y="281"/>
      <point x="862" y="450"/>
      <point x="856" y="670" type="curve"/>
      <point x="817" y="651"/>
      <point x="777" y="629"/>
      <point x="738" y="604" type="curve"/>
      <point x="783" y="354"/>
      <point x="804" y="254"/>
      <point x="815" y="141" type="curve"/>
      <point x="776" y="126"/>
      <point x="735" y="118"/>
      <point x="716" y="118" type="curve" smooth="yes"/>
      <point x="673" y="118"/>
      <point x="638" y="127"/>
      <point x="609" y="146" type="curve"/>
      <point x="616" y="576" type="line"/>
      <point x="595" y="564"/>
      <point x="569" y="549"/>
      <point x="510" y="513" type="curve"/>
      <point x="559" y="137" type="line"/>
      <point x="530" y="125"/>
      <point x="501" y="118"/>
      <point x="471" y="118" type="curve" smooth="yes"/>
      <point x="434" y="118"/>
      <point x="399" y="127"/>
      <point x="368" y="145" type="curve"/>
      <point x="368" y="480" type="line"/>
      <point x="330" y="459"/>
      <point x="296" y="435"/>
      <point x="264" y="408" type="curve"/>
      <point x="269" y="368" type="line"/>
      <point x="214" y="344"/>
      <point x="123" y="275"/>
      <point x="105" y="241" type="curve" smooth="yes"/>
      <point x="95" y="221"/>
      <point x="68" y="141"/>
      <point x="68" y="129" type="curve" smooth="yes"/>
      <point x="68" y="80"/>
      <point x="192" y="37"/>
      <point x="284" y="29" type="curve"/>
      <point x="297" y="56"/>
      <point x="311" y="83"/>
      <point x="324" y="110" type="curve"/>
      <point x="343" y="28"/>
      <point x="370" y="1"/>
    </contour>
    <contour>
      <point x="314" y="148" type="curve"/>
      <point x="251" y="151"/>
      <point x="198" y="156"/>
      <point x="139" y="196" type="curve"/>
      <point x="174" y="230"/>
      <point x="222" y="257"/>
      <point x="285" y="278" type="curve"/>
      <point x="296" y="223"/>
      <point x="306" y="180"/>
    </contour>
    <contour>
      <point x="506" y="605" type="curve" smooth="yes"/>
      <point x="526" y="605"/>
      <point x="546" y="619"/>
      <point x="552" y="653" type="curve"/>
      <point x="566" y="632"/>
      <point x="581" y="627"/>
      <point x="592" y="627" type="curve" smooth="yes"/>
      <point x="624" y="627"/>
      <point x="647" y="658"/>
      <point x="647" y="690" type="curve" smooth="yes"/>
      <point x="647" y="704"/>
      <point x="643" y="731"/>
      <point x="629" y="759" type="curve"/>
      <point x="615" y="755"/>
      <point x="602" y="741"/>
      <point x="602" y="728" type="curve"/>
      <point x="604" y="719" type="line"/>
      <point x="613" y="699"/>
      <point x="618" y="685"/>
      <point x="620" y="678" type="curve"/>
      <point x="617" y="672"/>
      <point x="608" y="666"/>
      <point x="600" y="666" type="curve" smooth="yes"/>
      <point x="569" y="666"/>
      <point x="562" y="688"/>
      <point x="558" y="724" type="curve"/>
      <point x="534" y="709" type="line"/>
      <point x="534" y="684"/>
      <point x="531" y="643"/>
      <point x="509" y="643" type="curve" smooth="yes"/>
      <point x="493" y="643"/>
      <point x="484" y="652"/>
      <point x="484" y="671" type="curve" smooth="yes"/>
      <point x="484" y="679"/>
      <point x="486" y="688"/>
      <point x="488" y="698" type="curve"/>
      <point x="473" y="701" type="line"/>
      <point x="465" y="686"/>
      <point x="460" y="670"/>
      <point x="460" y="655" type="curve" smooth="yes"/>
      <point x="460" y="623"/>
      <point x="479" y="605"/>
    </contour>
    <contour>
      <point x="537" y="764" type="line"/>
      <point x="549" y="783"/>
      <point x="556" y="808"/>
      <point x="556" y="837" type="curve" smooth="yes"/>
      <point x="556" y="865"/>
      <point x="554" y="893"/>
      <point x="550" y="919" type="curve"/>
      <point x="530" y="914"/>
      <point x="520" y="905"/>
      <point x="520" y="884" type="curve"/>
      <point x="520" y="845"/>
      <point x="531" y="785"/>
      <point x="531" y="766" type="curve"/>
    </contour>
    <contour>
      <point x="1015" y="0" type="curve"/>
      <point x="1085" y="8" type="line"/>
      <point x="1085" y="179"/>
      <point x="1085" y="350"/>
      <point x="1085" y="521" type="curve"/>
      <point x="1119" y="547" type="line"/>
      <point x="1104" y="587"/>
      <point x="1090" y="628"/>
      <point x="1079" y="670" type="curve"/>
      <point x="1021" y="670"/>
      <point x="971" y="636"/>
      <point x="971" y="585" type="curve"/>
      <point x="971" y="545"/>
      <point x="1000" y="195"/>
    </contour>
  </outline>
</glyph>
